<svg width="244" height="67" viewBox="0 0 244 67" fill="none" xmlns="http://www.w3.org/2000/svg">
<path fill-rule="evenodd" clip-rule="evenodd" d="M70.2648 7.59727C70.2648 6.50294 68.916 5.93945 67.9709 6.50294L64.0583 8.72425C63.1819 9.25681 62.541 9.8203 62.541 10.9799V39.8982C62.541 40.8602 62.8108 41.7879 63.7559 42.8169C65.4742 44.7067 69.6239 47.4606 75.6277 47.4606C84.8361 47.4606 91.4464 41.8549 91.4464 33.5641C91.4464 24.909 85.7794 20.0335 78.3598 20.0335C75.4249 20.0335 72.1876 20.664 70.2992 21.9232V7.59727H70.2648ZM122.51 26.6665C122.51 25.5395 122.51 24.8094 121.464 23.947C118.8 21.626 114.719 20.0988 109.322 20.0988C100.383 20.0988 93.6716 25.4399 93.6716 33.9283C93.6716 42.7173 99.8112 47.5258 106.927 47.5258C110.74 47.5258 113.405 46.1343 114.821 43.8786V44.906C114.821 46.0003 115.561 46.7631 116.608 46.7631H120.756C121.802 46.7631 122.543 46.0003 122.543 44.9077V26.6648H122.508L122.51 26.6665ZM199.343 27.1304H210.709C211.823 27.1304 212.531 26.4672 212.531 25.4399V22.7857C212.531 21.7583 211.788 21.0952 210.709 21.0952H199.343V12.0416C199.343 10.9146 197.892 10.4491 197.049 10.9473L193.138 13.1686C192.261 13.7011 191.62 14.2629 191.62 15.4242V34.4265C191.62 42.7499 196.849 47.4932 204.91 47.4932C207.245 47.5323 209.545 46.924 211.555 45.7357C212.599 45.0726 213.072 44.2428 213.072 43.3134V40.2297C213.072 39.4669 212.498 39.1027 211.926 39.1027C211.285 39.1027 210.778 39.5666 210.104 40.0304C209.261 40.5956 207.944 41.2588 205.821 41.2588C201.74 41.2588 199.377 38.8365 199.377 34.6584V27.1304H199.343ZM146.761 37.5772C146.3 38.6947 145.512 39.647 144.501 40.3097C143.49 40.9724 142.302 41.3146 141.094 41.2914C136.81 41.2914 134.753 38.7712 134.753 34.4935V22.9523C134.753 21.858 134.011 21.0952 132.966 21.0952H128.682C127.636 21.0952 126.895 21.858 126.895 22.9506V34.6275C126.895 42.9509 131.617 47.4949 139.508 47.4949C142.544 47.4949 145.276 46.3009 146.726 44.0453V48.7868C146.726 53.0989 143.692 55.023 139.509 55.023C137.013 55.023 135.159 54.2928 133.81 53.6314C132.933 53.1659 132.224 52.702 131.718 52.702C131.043 52.702 130.301 53.0989 130.301 54.0283V57.0794C130.301 57.7425 130.672 58.5705 131.65 59.2337C133.236 60.3624 136.035 61.2574 139.915 61.2574C147.401 61.2574 154.519 56.8474 154.519 48.323V22.9523C154.519 21.858 153.776 21.0952 152.732 21.0952H148.479C147.434 21.0952 146.692 21.858 146.692 22.9506V37.5772H146.759H146.761ZM179.106 37.5772C178.645 38.6947 177.858 39.647 176.847 40.3097C175.835 40.9724 174.648 41.3146 173.439 41.2914C169.155 41.2914 167.098 38.7712 167.098 34.4935V22.9523C167.098 21.858 166.356 21.0952 165.311 21.0952H161.028C159.981 21.0952 159.241 21.858 159.241 22.9506V34.6275C159.241 42.9509 163.963 47.4949 171.753 47.4949C174.889 47.4949 177.757 46.2683 179.173 43.846V44.875C179.173 45.9694 179.915 46.7304 180.96 46.7304H185.11C186.155 46.7304 186.897 45.9694 186.897 44.875V22.954C186.897 21.8597 186.155 21.0969 185.11 21.0969H180.86C179.814 21.0969 179.073 21.8597 179.073 22.9523V37.5789H179.106V37.5772ZM70.2648 28.1594C71.914 26.8632 73.9695 26.1936 76.0658 26.2697C80.2156 26.2697 83.2827 28.5236 83.2827 33.796C83.2827 39.302 79.9441 41.458 75.4936 41.458C73.6035 41.458 71.581 40.7932 70.2648 39.5992V28.1577V28.1594ZM114.718 37.6098C113.876 39.8655 111.279 41.2588 108.715 41.2588C104.432 41.2588 101.7 38.6389 101.7 33.5967C101.7 28.491 105.107 25.9364 109.188 25.9364C111.346 25.9364 113.437 26.3349 114.719 27.4963L114.718 37.6098ZM32.0857 43.2172C38.1857 43.4869 43.9455 40.441 47.0797 35.2872C48.6164 32.7657 49.4293 29.87 49.4293 26.9173C49.4293 23.9646 48.6164 21.0689 47.0797 18.5475C43.9455 13.3936 38.1874 10.346 32.0857 10.6174C23.2209 11.0108 16.2394 18.1919 16.2394 26.9173C16.2394 35.6428 23.2209 42.8238 32.0857 43.2172ZM37.4829 7.00286C46.2514 9.31866 52.5044 16.9275 52.9649 25.8453C53.4271 34.7615 47.9921 42.9561 39.5071 46.1343C31.0221 49.3142 21.4201 46.7579 15.7274 39.8002L15.6277 39.8672L4.12364 46.3989C3.70437 46.6394 3.20434 46.7029 2.73525 46.5775C2.26938 46.4546 1.87137 46.1519 1.62865 45.7357L0.245415 43.3822C0.124969 43.1784 0.0467717 42.9524 0.0154802 42.7178C-0.0158113 42.4831 0.000442784 42.2446 0.0632745 42.0164C0.188711 41.5543 0.498007 41.1626 0.918993 40.9272L12.4214 34.4265L12.5227 34.3595C9.6566 27.1235 11.1739 18.9168 16.4474 13.1359C21.7226 7.35504 29.8536 4.98256 37.4812 7.00115L37.4829 7.00286ZM32.0857 26.8967C30.1612 26.8967 28.5769 28.4549 28.5769 30.3464V34.6584C28.5737 34.9953 28.4369 35.3171 28.1966 35.5532C27.9563 35.7893 27.632 35.9204 27.295 35.9177H22.6075C22.188 35.9185 21.785 35.7544 21.4854 35.4607C21.3387 35.3169 21.2221 35.1453 21.1424 34.9559C21.0628 34.7665 21.0217 34.5632 21.0215 34.3578V25.007C21.0215 22.6843 21.0215 22.4524 21.9322 21.9559L30.1629 17.2796C30.9035 16.8484 31.4431 16.5495 32.1183 16.5495C32.7936 16.5495 33.3332 16.8484 34.0738 17.2796L42.3045 21.9559C43.2152 22.4867 43.2152 22.6843 43.2152 25.007V34.3578C43.2138 34.5644 43.1717 34.7687 43.0912 34.9591C43.0107 35.1494 42.8934 35.322 42.7461 35.4669C42.5987 35.6118 42.4242 35.7262 42.2326 35.8036C42.0409 35.8809 41.8359 35.9197 41.6292 35.9177H36.9434C36.7764 35.919 36.6108 35.8875 36.456 35.8248C36.3012 35.7622 36.1602 35.6697 36.0412 35.5526C35.9222 35.4355 35.8274 35.2961 35.7622 35.1424C35.6971 34.9887 35.6628 34.8236 35.6615 34.6567V30.3446C35.5893 28.4446 34.0188 26.9311 32.0857 26.8967Z" fill="white"/>
<path d="M169.826 53.1419L169.62 53.3652C169.553 53.4271 169.449 53.4271 169.348 53.4271C169.228 53.4246 169.11 53.3921 169.006 53.3326L168.563 53.1093C168.38 53.0098 168.185 52.9347 167.982 52.8859C167.738 52.8189 167.485 52.7871 167.231 52.7915C166.719 52.7915 166.344 52.8877 166.106 53.1093C165.987 53.2113 165.891 53.3381 165.826 53.4809C165.761 53.6236 165.728 53.7788 165.729 53.9356C165.729 54.1589 165.798 54.3479 165.936 54.4768C166.071 54.6039 166.241 54.731 166.48 54.8581L167.266 55.145L168.154 55.3993L169.041 55.748C169.314 55.8752 169.587 56.0349 169.826 56.2566C170.065 56.4472 170.235 56.7032 170.372 56.9884C170.647 57.7426 170.635 58.562 170.338 59.3076C170.171 59.6873 169.929 60.0326 169.621 60.3264C169.312 60.6116 168.905 60.8349 168.46 61.0256C167.601 61.2816 166.683 61.3245 165.796 61.1527L164.843 60.8985L163.954 60.4861C163.696 60.3328 163.456 60.1513 163.238 59.945L163.886 58.9898L164.092 58.8008C164.195 58.7356 164.262 58.7356 164.365 58.7356C164.511 58.7356 164.657 58.7802 164.774 58.8627L165.286 59.1496C165.492 59.2441 165.695 59.3729 165.934 59.4348C166.229 59.5344 166.542 59.5774 166.857 59.5619C167.369 59.5619 167.778 59.4674 168.051 59.2441C168.324 59.0207 168.46 58.7046 168.46 58.2597C168.47 58.0396 168.397 57.8238 168.255 57.655C168.108 57.4845 167.92 57.3535 167.709 57.2736C167.456 57.1645 167.193 57.0794 166.924 57.0193C166.625 56.9448 166.329 56.86 166.037 56.7651L165.149 56.4472C164.564 56.2019 164.09 55.7492 163.819 55.176C163.677 54.8213 163.607 54.442 163.613 54.0601C163.619 53.6783 163.7 53.3013 163.853 52.9512C164.008 52.6025 164.24 52.2881 164.535 52.0287C164.843 51.7744 165.217 51.5528 165.661 51.393C166.74 51.0522 167.9 51.0636 168.972 51.4257C169.518 51.6147 169.962 51.8706 170.338 52.1885L169.826 53.1419ZM171.601 55.0815C172.513 54.3572 173.644 53.9646 174.809 53.9682C175.252 53.9682 175.663 54.0318 176.003 54.1572C176.347 54.2861 176.653 54.4768 176.891 54.731C177.13 54.9853 177.335 55.2722 177.472 55.59C177.61 55.9387 177.677 56.2892 177.677 56.7015V61.1201H176.754C176.604 61.1219 176.454 61.1004 176.311 61.0565C176.208 60.9929 176.139 60.8985 176.072 60.7387L175.9 60.2937L175.355 60.706C175.187 60.8261 175.003 60.9226 174.809 60.9929L174.195 61.1836L173.477 61.2472C172.895 61.2652 172.322 61.0986 171.84 60.7713C171.638 60.615 171.485 60.4055 171.396 60.1666C171.284 59.9057 171.225 59.6245 171.225 59.3403C171.23 59.0356 171.319 58.7383 171.482 58.4806C171.645 58.2229 171.875 58.0146 172.147 57.8783C172.487 57.655 172.965 57.4969 173.512 57.3371C174.092 57.21 174.809 57.1138 175.663 57.1138V56.7651C175.663 56.3201 175.56 56.0023 175.355 55.7807C175.149 55.5574 174.878 55.4629 174.501 55.4629C174.27 55.4555 174.04 55.4875 173.819 55.5573L173.341 55.748L172.965 55.9387C172.837 56.0001 172.698 56.0329 172.556 56.0349C172.419 56.0349 172.283 56.0023 172.214 55.9387L171.975 55.7154L171.601 55.0815ZM175.73 58.1961L174.501 58.3232C174.231 58.3643 173.967 58.4393 173.716 58.5466C173.512 58.6411 173.376 58.7356 173.307 58.8627C173.238 58.9898 173.17 59.1169 173.17 59.2441C173.17 59.531 173.238 59.7217 173.41 59.8179C173.58 59.945 173.785 59.9759 174.092 59.9759C174.396 59.9759 174.697 59.9227 174.979 59.8179C175.254 59.6821 175.508 59.5121 175.73 59.3076V58.1961ZM185.902 54.0954V61.1218H184.674C184.4 61.1218 184.265 61.0256 184.162 60.8022L184.024 60.3264L183.548 60.7078C183.394 60.8246 183.222 60.9208 183.036 60.9929C182.855 61.0893 182.658 61.1538 182.455 61.1836L181.773 61.2472C181.4 61.2554 181.029 61.1912 180.68 61.0582C180.377 60.9365 180.106 60.7471 179.887 60.5044C179.668 60.2617 179.507 59.9723 179.417 59.6581C179.314 59.3403 179.246 58.9589 179.246 58.5758V54.0954H181.261V58.5775C181.261 58.9589 181.364 59.2767 181.534 59.4983C181.739 59.7217 182.012 59.8179 182.387 59.8179C182.656 59.8127 182.924 59.7595 183.172 59.6581L183.888 59.1805V54.1263H185.902V54.0954ZM194.265 50.9807V61.151H193.037C192.764 61.151 192.628 61.0565 192.525 60.8349L192.353 60.2302L191.877 60.6425C191.707 60.7681 191.523 60.8752 191.33 60.962L190.715 61.1854L189.964 61.2472C189.169 61.2472 188.42 60.8933 187.951 60.2937C187.686 59.9527 187.489 59.5644 187.37 59.1496C187.088 58.1713 187.1 57.1319 187.404 56.1604C187.576 55.7171 187.78 55.3357 188.054 54.9853C188.861 54.0507 190.219 53.6934 191.432 54.0954C191.707 54.2225 191.978 54.3496 192.183 54.5712V50.9481H194.265V50.9807ZM192.251 55.9387C192.071 55.7597 191.863 55.6096 191.636 55.4938C191.408 55.4035 191.165 55.3603 190.92 55.3667C190.686 55.3597 190.453 55.403 190.238 55.4938C190.033 55.5827 189.856 55.7251 189.726 55.9061C189.579 56.1225 189.464 56.3584 189.384 56.607C189.233 57.2656 189.233 57.9498 189.384 58.6084C189.435 58.8438 189.528 59.0688 189.659 59.2767C189.794 59.4348 189.93 59.5619 190.102 59.6255C190.272 59.689 190.476 59.7526 190.681 59.7526C191.023 59.7526 191.33 59.689 191.569 59.5636C191.833 59.4201 192.065 59.225 192.251 58.9898V55.9387ZM198.259 52.0922C198.259 52.252 198.224 52.4101 198.156 52.5389C198.084 52.6687 197.992 52.7864 197.884 52.8877C197.765 52.9986 197.626 53.085 197.473 53.1419C197.167 53.2663 196.824 53.2663 196.518 53.1419C196.375 53.0884 196.246 53.0012 196.143 52.8877C196.034 52.7862 195.941 52.6679 195.868 52.5372C195.799 52.3992 195.765 52.2466 195.767 52.0922C195.767 51.9342 195.801 51.7744 195.87 51.6473C196.018 51.3839 196.245 51.1732 196.518 51.0443C196.669 50.9788 196.831 50.946 196.996 50.9481C197.168 50.9481 197.338 50.9807 197.473 51.0443C197.645 51.1079 197.748 51.1714 197.884 51.2986L198.157 51.6473C198.226 51.8071 198.26 51.9342 198.26 52.094L198.259 52.0922ZM198.02 54.0954V61.1218H196.006V54.0954H198.02ZM212.289 61.1527H210.581C210.412 61.165 210.243 61.1203 210.103 61.0256C209.986 60.9455 209.891 60.8359 209.83 60.7078L209.113 58.8318H204.881L204.164 60.7078C204.13 60.8349 204.027 60.9311 203.89 61.0256C203.75 61.1199 203.582 61.1647 203.414 61.1527H201.707L205.871 51.2659H208.123L212.289 61.1527ZM208.601 57.3698L207.441 54.3496C207.362 54.1627 207.294 53.9718 207.235 53.7776L207.031 53.0784L206.826 53.7776L206.622 54.3496L205.496 57.3698H208.601ZM214.882 55.2722C215.081 54.9045 215.359 54.5798 215.701 54.317C216.009 54.0937 216.383 53.9682 216.794 53.9682C217.134 53.9682 217.408 54.0318 217.614 54.1916L217.476 55.59C217.456 55.6598 217.421 55.7243 217.373 55.779L217.169 55.8442L216.828 55.8116L216.418 55.7807L215.94 55.8442C215.655 55.9536 215.415 56.155 215.258 56.4163L215.017 56.8613V61.1527H213.005V54.1263H214.199C214.406 54.1263 214.541 54.1589 214.608 54.2225C214.677 54.2861 214.746 54.4115 214.78 54.5712L214.882 55.2722ZM218.262 55.0815C219.174 54.3572 220.305 53.9646 221.47 53.9682C221.915 53.9682 222.324 54.0318 222.666 54.1572C223.006 54.2861 223.313 54.4768 223.552 54.731C223.793 54.9853 223.995 55.2722 224.133 55.59C224.27 55.9387 224.337 56.2892 224.337 56.7015V61.1201H223.416C223.266 61.122 223.116 61.1006 222.971 61.0565C222.868 60.9929 222.801 60.8985 222.733 60.7387L222.561 60.2937L222.016 60.706C221.848 60.8261 221.664 60.9226 221.47 60.9929L220.856 61.1836L220.14 61.2472C219.557 61.2655 218.983 61.099 218.5 60.7713C218.299 60.615 218.146 60.4055 218.057 60.1666C217.944 59.9057 217.886 59.6245 217.885 59.3403C217.891 59.0356 217.98 58.7383 218.143 58.4806C218.305 58.2229 218.535 58.0146 218.808 57.8783C219.148 57.655 219.628 57.4969 220.172 57.3371C220.753 57.21 221.47 57.1138 222.324 57.1138V56.7651C222.324 56.3201 222.22 56.0023 222.016 55.7807C221.81 55.5574 221.538 55.4629 221.162 55.4629C220.931 55.4555 220.7 55.4875 220.48 55.5573L220.002 55.748L219.628 55.9387C219.499 56.0003 219.359 56.0332 219.217 56.0349C219.079 56.0349 218.944 56.0023 218.877 55.9387L218.636 55.7154L218.262 55.0815ZM222.392 58.1961L221.162 58.3232C220.892 58.3644 220.629 58.4395 220.378 58.5466C220.172 58.6411 220.035 58.7356 219.968 58.8627C219.892 58.9771 219.845 59.1078 219.83 59.2441C219.83 59.531 219.899 59.7217 220.071 59.8179C220.243 59.945 220.445 59.9759 220.753 59.9759C221.057 59.9759 221.358 59.9227 221.641 59.8179C221.916 59.6821 222.169 59.5121 222.392 59.3076V58.1961ZM227.956 54.9217C228.238 54.6451 228.575 54.4183 228.946 54.2534C229.333 54.0833 229.752 53.9966 230.175 53.9992C230.982 53.994 231.742 54.3496 232.223 54.9526C232.462 55.2395 232.666 55.6226 232.802 56.0349C232.939 56.4472 233.008 56.9248 233.008 57.4643C233.008 58.0363 232.939 58.5466 232.767 59.0225C232.597 59.4983 232.393 59.8814 232.12 60.2302C231.852 60.56 231.501 60.8229 231.096 60.9929C230.494 61.242 229.827 61.3073 229.185 61.1836C229.005 61.1491 228.832 61.0852 228.673 60.9947C228.506 60.9305 228.355 60.8329 228.228 60.7078C228.087 60.6086 227.961 60.4906 227.853 60.3573L227.784 60.7696C227.754 60.8791 227.695 60.9782 227.613 61.0565C227.546 61.1201 227.444 61.1201 227.307 61.1201H225.975V50.9498H227.989V54.9217H227.954H227.956ZM227.956 59.2767C228.161 59.4674 228.365 59.6255 228.57 59.7217C228.81 59.8179 229.013 59.8488 229.252 59.8488C229.492 59.8488 229.731 59.8179 229.936 59.7217C230.14 59.6328 230.317 59.4903 230.448 59.3094C230.614 59.0895 230.73 58.8404 230.788 58.5775C230.931 57.907 230.931 57.214 230.788 56.5435C230.729 56.3191 230.637 56.1049 230.515 55.9078C230.391 55.755 230.241 55.6258 230.071 55.5264C229.881 55.4323 229.67 55.3885 229.458 55.3993C229.173 55.3941 228.892 55.459 228.638 55.5883C228.377 55.7429 228.147 55.937 227.956 56.1621V59.2767ZM236.625 52.0922C236.625 52.252 236.591 52.4101 236.522 52.5389C236.45 52.6687 236.359 52.7864 236.25 52.8877C236.132 52.9986 235.992 53.085 235.84 53.1419C235.534 53.2663 235.191 53.2663 234.884 53.1419C234.741 53.0884 234.613 53.0012 234.51 52.8877C234.4 52.7862 234.307 52.6679 234.235 52.5372C234.166 52.3992 234.131 52.2466 234.134 52.0922C234.134 51.9342 234.168 51.7744 234.237 51.6473C234.385 51.3839 234.611 51.1732 234.884 51.0443C235.035 50.9788 235.198 50.946 235.362 50.9481C235.534 50.9481 235.704 50.9807 235.84 51.0443C236.012 51.1079 236.115 51.1714 236.25 51.2986L236.524 51.6473C236.592 51.8071 236.627 51.9342 236.627 52.094L236.625 52.0922ZM236.386 54.0954V61.1218H234.372V54.0954H236.386ZM237.922 55.0815C238.834 54.3572 239.966 53.9646 241.13 53.9682C241.576 53.9682 241.984 54.0318 242.326 54.1572C242.667 54.2861 242.974 54.4768 243.213 54.731C243.454 54.9853 243.656 55.2722 243.794 55.59C243.931 55.9387 243.998 56.2892 243.998 56.7015V61.1201H243.077C242.927 61.122 242.776 61.1006 242.632 61.0565C242.529 60.9929 242.462 60.8985 242.393 60.7387L242.223 60.2937L241.677 60.706C241.509 60.8261 241.325 60.9226 241.13 60.9929L240.517 61.1836L239.801 61.2472C239.218 61.2655 238.644 61.099 238.161 60.7713C237.96 60.615 237.806 60.4055 237.718 60.1666C237.605 59.9057 237.547 59.6245 237.546 59.3403C237.552 59.0356 237.641 58.7383 237.804 58.4806C237.966 58.2229 238.196 58.0146 238.469 57.8783C238.811 57.655 239.288 57.4969 239.833 57.3371C240.414 57.21 241.131 57.1138 241.984 57.1138V56.7651C241.984 56.3201 241.881 56.0023 241.677 55.7807C241.472 55.5574 241.199 55.4629 240.825 55.4629C240.593 55.4553 240.362 55.4873 240.141 55.5573L239.663 55.748L239.288 55.9387C239.16 56.0003 239.02 56.0332 238.878 56.0349C238.74 56.0349 238.605 56.0023 238.538 55.9387L238.297 55.7154L237.922 55.0815ZM242.053 58.1961L240.825 58.3232C240.555 58.3643 240.291 58.4393 240.039 58.5466C239.833 58.6411 239.697 58.7356 239.629 58.8627C239.553 58.9771 239.506 59.1078 239.491 59.2441C239.491 59.531 239.56 59.7217 239.732 59.8179C239.904 59.945 240.106 59.9759 240.414 59.9759C240.718 59.9759 241.019 59.9227 241.302 59.8179C241.577 59.6821 241.83 59.5121 242.053 59.3076V58.1961Z" fill="white"/>
</svg>
