<svg width="16" height="16" viewBox="0 0 16 16" fill="none" xmlns="http://www.w3.org/2000/svg">
<g clip-path="url(#clip0_339_370)">
<path d="M0.999807 1.08691C-0.257526 2.39291 -0.000192679 3.78024 -0.000192679 7.99491C-0.000192679 11.4949 -0.610859 15.0036 2.58514 15.8296C3.58314 16.0862 12.4258 16.0862 13.4225 15.8282C14.7531 15.4849 15.8358 14.4056 15.9838 12.5236C16.0045 12.2609 16.0045 3.73357 15.9831 3.46557C15.8258 1.46091 14.5918 0.305574 12.9658 0.0715739C12.5931 0.0175739 12.5185 0.00157389 10.6065 -0.00175944C3.82447 0.00157389 2.33781 -0.300426 0.999807 1.08691Z" fill="url(#paint0_linear_339_370)"/>
<path d="M7.99594 2.09164C5.57527 2.09164 3.27661 1.87631 2.39861 4.12964C2.03594 5.06031 2.08861 6.26897 2.08861 7.99964C2.08861 9.51831 2.03994 10.9456 2.39861 11.869C3.27461 14.1236 5.59194 13.9076 7.99461 13.9076C10.3126 13.9076 12.7026 14.149 13.5913 11.869C13.9546 10.929 13.9013 9.73831 13.9013 7.99964C13.9013 5.69164 14.0286 4.20164 12.9093 3.08297C11.7759 1.94964 10.2433 2.09164 7.99327 2.09164H7.99594ZM7.46661 3.15631C12.5159 3.14831 13.1586 2.58697 12.8039 10.385C12.6779 13.143 10.5779 12.8403 7.9966 12.8403C3.28994 12.8403 3.15461 12.7056 3.15461 7.99697C3.15461 3.23364 3.52794 3.15897 7.46661 3.15497V3.15631ZM11.1493 4.13697C10.7579 4.13697 10.4406 4.45431 10.4406 4.84564C10.4406 5.23697 10.7579 5.55431 11.1493 5.55431C11.5406 5.55431 11.8579 5.23697 11.8579 4.84564C11.8579 4.45431 11.5406 4.13697 11.1493 4.13697ZM7.99594 4.96564C6.32061 4.96564 4.96261 6.32431 4.96261 7.99964C4.96261 9.67497 6.32061 11.033 7.99594 11.033C9.67127 11.033 11.0286 9.67497 11.0286 7.99964C11.0286 6.32431 9.67127 4.96564 7.99594 4.96564ZM7.99594 6.03031C10.5993 6.03031 10.6026 9.96897 7.99594 9.96897C5.39327 9.96897 5.38927 6.03031 7.99594 6.03031Z" fill="white"/>
</g>
<defs>
<linearGradient id="paint0_linear_339_370" x1="1.03049" y1="14.9763" x2="15.9008" y2="2.10622" gradientUnits="userSpaceOnUse">
<stop stop-color="#FFDD55"/>
<stop offset="0.5" stop-color="#FF543E"/>
<stop offset="1" stop-color="#C837AB"/>
</linearGradient>
<clipPath id="clip0_339_370">
<rect width="16" height="16" fill="white"/>
</clipPath>
</defs>
</svg>
