<svg width="16" height="16" viewBox="0 0 16 16" fill="none" xmlns="http://www.w3.org/2000/svg">
<path d="M13.8182 0H2.18182C0.976833 0 0 0.976833 0 2.18182V13.8182C0 15.0232 0.976833 16 2.18182 16H13.8182C15.0232 16 16 15.0232 16 13.8182V2.18182C16 0.976833 15.0232 0 13.8182 0Z" fill="#0077B5"/>
<path d="M5.76634 4.36364C5.76634 4.63334 5.68636 4.89698 5.53652 5.12123C5.38668 5.34548 5.17371 5.52026 4.92454 5.62347C4.67537 5.72668 4.40119 5.75369 4.13667 5.70107C3.87215 5.64846 3.62917 5.51858 3.43846 5.32787C3.24776 5.13717 3.11788 4.89419 3.06527 4.62967C3.01265 4.36515 3.03965 4.09097 3.14286 3.8418C3.24607 3.59262 3.42086 3.37965 3.6451 3.22981C3.86935 3.07998 4.133 3 4.4027 3C4.76436 3 5.1112 3.14367 5.36694 3.3994C5.62267 3.65513 5.76634 4.00198 5.76634 4.36364Z" fill="white"/>
<path d="M5.45648 6.63506V12.6596C5.45672 12.704 5.44817 12.7481 5.43133 12.7892C5.41449 12.8304 5.38968 12.8678 5.35834 12.8993C5.327 12.9308 5.28973 12.9558 5.2487 12.9728C5.20766 12.9899 5.16365 12.9987 5.11921 12.9987H3.68193C3.63749 12.9988 3.59346 12.9901 3.55237 12.9732C3.51129 12.9562 3.47396 12.9313 3.44253 12.8999C3.41111 12.8685 3.3862 12.8312 3.36925 12.7901C3.3523 12.749 3.34363 12.705 3.34375 12.6605V6.63506C3.34375 6.54537 3.37938 6.45935 3.4428 6.39593C3.50622 6.3325 3.59224 6.29688 3.68193 6.29688H5.11921C5.20874 6.29712 5.29452 6.33285 5.35775 6.39625C5.42097 6.45964 5.45648 6.54552 5.45648 6.63506Z" fill="white"/>
<path d="M12.9672 9.77376V12.6901C12.9673 12.731 12.9593 12.7715 12.9437 12.8092C12.9282 12.847 12.9053 12.8813 12.8764 12.9102C12.8475 12.9391 12.8131 12.962 12.7754 12.9776C12.7376 12.9932 12.6971 13.0012 12.6563 13.001H11.1108C11.0699 13.0012 11.0295 12.9932 10.9917 12.9776C10.9539 12.962 10.9196 12.9391 10.8907 12.9102C10.8618 12.8813 10.8389 12.847 10.8233 12.8092C10.8077 12.7715 10.7998 12.731 10.7999 12.6901V9.86376C10.7999 9.44195 10.9235 8.01649 9.69716 8.01649C8.74716 8.01649 8.55352 8.99195 8.51534 9.43013V12.6901C8.51535 12.7718 8.48322 12.8502 8.42589 12.9084C8.36856 12.9666 8.29065 12.9998 8.20898 13.001H6.71625C6.67546 13.001 6.63508 12.993 6.59741 12.9774C6.55974 12.9617 6.52552 12.9388 6.49673 12.9099C6.46793 12.881 6.44511 12.8468 6.42959 12.809C6.41406 12.7713 6.40613 12.7309 6.40625 12.6901V6.61104C6.40613 6.57025 6.41406 6.52984 6.42959 6.49213C6.44511 6.45441 6.46793 6.42013 6.49673 6.39125C6.52552 6.36236 6.55974 6.33945 6.59741 6.32381C6.63508 6.30818 6.67546 6.30013 6.71625 6.30013H8.20898C8.29144 6.30013 8.37052 6.33288 8.42882 6.39119C8.48713 6.4495 8.51989 6.52858 8.51989 6.61104V7.13649C8.87262 6.6074 9.39534 6.19922 10.5108 6.19922C12.9817 6.19922 12.9672 8.50649 12.9672 9.77376Z" fill="white"/>
</svg>
