<svg width="256" height="256" fill="none" xmlns="http://www.w3.org/2000/svg"><path fill="#fff" d="M0 0h256v256H0z"/><path fill-rule="evenodd" clip-rule="evenodd" d="M89.352 213.572v-72.157l21.768-20.389v108.035" fill="#00A64F"/><path d="M54.017 157.608c0-47.322 38.337-85.7 85.63-85.7 36.978 0 69.781 23.728 81.353 58.884-7.144-51.383-54.554-87.26-105.922-80.128-51.368 7.132-87.223 54.588-80.079 105.988 4.947 35.659 29.851 65.361 64.08 76.453C71.324 218.154 54 189.156 54.017 157.608Z" fill="url(#lms-mono__a)"/><mask id="lms-mono__b" maskUnits="userSpaceOnUse" x="114.879" y="14.868" width="63" height="215" fill="#000"><path fill="#fff" d="M114.879 14.868h63v215h-63z"/><path fill-rule="evenodd" clip-rule="evenodd" d="M117.879 229V21.868l24.35 22.822v175.98c2.549-.873 5.048 5.638 7.48 4.531V81.457l24.351 22.822V218"/></mask><path fill-rule="evenodd" clip-rule="evenodd" d="M117.879 229V21.868l24.35 22.822v175.98c2.549-.873 5.048 5.638 7.48 4.531V81.457l24.351 22.822V218" fill="#00A64F"/><path d="M117.879 224.849h-3 3Zm0-202.981 2.051-2.19-5.051-4.734v6.924h3Zm24.35 22.822h3v-1.3l-.948-.89-2.052 2.19Zm0 175.981h-3v4.198l3.972-1.36-.972-2.838Zm7.48 4.531 1.243 2.73 1.757-.8v-1.93h-3Zm0-143.745 2.051-2.19-5.051-4.734v6.924h3Zm24.351 22.822h3v-1.3l-.949-.889-2.051 2.189ZM120.879 229v-4.151h-6V229h6Zm0-4.151V21.868h-6v202.981h6Zm-5.052-200.792 24.351 22.822 4.103-4.378-24.351-22.822-4.103 4.378Zm23.402 20.633v175.98h6V44.69h-6Zm3.972 178.819c-.779.267-1.219-.203-.863.062.345.258.762.704 1.449 1.465.56.619 1.407 1.574 2.34 2.241.951.682 2.76 1.595 4.825.655l-2.487-5.461c.85-.386 1.434.128 1.154-.072-.299-.215-.693-.626-1.38-1.386-.56-.62-1.398-1.568-2.314-2.252-.906-.675-2.613-1.632-4.667-.929l1.943 5.677Zm9.508 1.693V81.457h-6v143.745h6Zm-5.052-141.556 24.351 22.822 4.103-4.378-24.351-22.822-4.103 4.378Zm23.403 20.633V218h6V104.279h-6Z" fill="#fff" mask="url(#lms-mono__b)"/><path d="M190.226 99.697c24.619 34.602 16.536 82.629-18.045 107.264-29.029 20.674-68.44 18.677-95.222-4.816 24.585 34.635 72.565 42.774 107.18 18.19 34.614-24.584 42.764-72.611 18.179-107.247a75.826 75.826 0 0 0-12.092-13.39Z" fill="url(#lms-mono__c)"/><defs><linearGradient id="lms-mono__a" x1="127.541" y1="49.752" x2="127.541" y2="233.096" gradientUnits="userSpaceOnUse"><stop stop-color="#00A64F"/><stop offset="1" stop-color="#48B864"/></linearGradient><linearGradient id="lms-mono__c" x1="146.737" y1="99.694" x2="146.737" y2="234.531" gradientUnits="userSpaceOnUse"><stop stop-color="#00A64F"/><stop offset="1" stop-color="#48B864"/></linearGradient></defs></svg>