<svg width="102" height="19" viewBox="0 0 102 19" fill="none" xmlns="http://www.w3.org/2000/svg">
<g clip-path="url(#clip0_339_347)">
<path d="M14 1H2C0.897 1 0 1.897 0 3V15C0 16.103 0.897 17 2 17H14C15.103 17 16 16.103 16 15V3C16 1.897 15.103 1 14 1Z" fill="#1976D2"/>
<path d="M13.5 9H11V7C11 6.448 11.448 6.5 12 6.5H13V4H11C9.343 4 8 5.343 8 7V9H6V11.5H8V17H11V11.5H12.5L13.5 9Z" fill="#FAFAFA"/>
</g>
<path d="M37.016 5.8V9.808H41.728V11.072H37.016V16H35.464V4.536H42.528V5.8H37.016ZM47.4263 12.352C46.7703 12.3733 46.2103 12.4267 45.7463 12.512C45.2876 12.592 44.9116 12.6987 44.6183 12.832C44.3303 12.9653 44.1196 13.1227 43.9863 13.304C43.8583 13.4853 43.7943 13.688 43.7943 13.912C43.7943 14.1253 43.8289 14.3093 43.8983 14.464C43.9676 14.6187 44.0609 14.7467 44.1783 14.848C44.3009 14.944 44.4423 15.016 44.6023 15.064C44.7676 15.1067 44.9436 15.128 45.1303 15.128C45.3809 15.128 45.6103 15.104 45.8183 15.056C46.0263 15.0027 46.2209 14.928 46.4023 14.832C46.5889 14.736 46.7649 14.6213 46.9303 14.488C47.1009 14.3547 47.2663 14.2027 47.4263 14.032V12.352ZM42.8263 9.04C43.2743 8.608 43.7569 8.28533 44.2743 8.072C44.7916 7.85867 45.3649 7.752 45.9943 7.752C46.4476 7.752 46.8503 7.82667 47.2023 7.976C47.5543 8.12533 47.8503 8.33333 48.0903 8.6C48.3303 8.86667 48.5116 9.18933 48.6343 9.568C48.7569 9.94667 48.8183 10.3627 48.8183 10.816V16H48.1863C48.0476 16 47.9409 15.9787 47.8663 15.936C47.7916 15.888 47.7329 15.7973 47.6903 15.664L47.5303 14.896C47.3169 15.0933 47.1089 15.2693 46.9062 15.424C46.7036 15.5733 46.4903 15.7013 46.2663 15.808C46.0423 15.9093 45.8023 15.9867 45.5463 16.04C45.2956 16.0987 45.0156 16.128 44.7063 16.128C44.3916 16.128 44.0956 16.0853 43.8183 16C43.5409 15.9093 43.2983 15.776 43.0903 15.6C42.8876 15.424 42.7249 15.2027 42.6023 14.936C42.4849 14.664 42.4263 14.344 42.4263 13.976C42.4263 13.656 42.5143 13.3493 42.6903 13.056C42.8663 12.7573 43.1516 12.4933 43.5463 12.264C43.9409 12.0347 44.4556 11.848 45.0903 11.704C45.7249 11.5547 46.5036 11.4693 47.4263 11.448V10.816C47.4263 10.1867 47.2903 9.712 47.0183 9.392C46.7463 9.06667 46.3489 8.904 45.8263 8.904C45.4743 8.904 45.1783 8.94933 44.9383 9.04C44.7036 9.12533 44.4983 9.224 44.3223 9.336C44.1516 9.44267 44.0023 9.54133 43.8743 9.632C43.7516 9.71733 43.6289 9.76 43.5063 9.76C43.4103 9.76 43.3276 9.736 43.2583 9.688C43.1889 9.63467 43.1303 9.57067 43.0822 9.496L42.8263 9.04ZM56.6274 9.336C56.5847 9.39467 56.542 9.44 56.4994 9.472C56.4567 9.504 56.398 9.52 56.3234 9.52C56.2434 9.52 56.1554 9.488 56.0594 9.424C55.9634 9.35467 55.8434 9.28 55.6994 9.2C55.5607 9.12 55.3874 9.048 55.1794 8.984C54.9767 8.91467 54.726 8.88 54.4274 8.88C54.0274 8.88 53.6754 8.952 53.3714 9.096C53.0674 9.23467 52.8114 9.43733 52.6034 9.704C52.4007 9.97067 52.246 10.2933 52.1394 10.672C52.038 11.0507 51.9874 11.4747 51.9874 11.944C51.9874 12.4347 52.0434 12.872 52.1554 13.256C52.2674 13.6347 52.4247 13.9547 52.6274 14.216C52.8354 14.472 53.0834 14.6693 53.3714 14.808C53.6647 14.9413 53.9927 15.008 54.3554 15.008C54.702 15.008 54.9874 14.968 55.2114 14.888C55.4354 14.8027 55.6194 14.7093 55.7634 14.608C55.9127 14.5067 56.0354 14.416 56.1314 14.336C56.2327 14.2507 56.3314 14.208 56.4274 14.208C56.5447 14.208 56.6354 14.2533 56.6994 14.344L57.0994 14.864C56.9234 15.0827 56.7234 15.2693 56.4994 15.424C56.2754 15.5787 56.0327 15.7093 55.7714 15.816C55.5154 15.9173 55.246 15.992 54.9634 16.04C54.6807 16.088 54.3927 16.112 54.0994 16.112C53.5927 16.112 53.1207 16.0187 52.6834 15.832C52.2514 15.6453 51.8754 15.376 51.5554 15.024C51.2354 14.6667 50.9847 14.2293 50.8034 13.712C50.622 13.1947 50.5314 12.6053 50.5314 11.944C50.5314 11.3413 50.614 10.784 50.7794 10.272C50.95 9.76 51.1954 9.32 51.5154 8.952C51.8407 8.57867 52.238 8.288 52.7074 8.08C53.182 7.872 53.726 7.768 54.3394 7.768C54.91 7.768 55.4114 7.86133 55.8434 8.048C56.2807 8.22933 56.6674 8.488 57.0034 8.824L56.6274 9.336ZM63.9114 11.064C63.9114 10.7333 63.8634 10.432 63.7674 10.16C63.6767 9.88267 63.5407 9.64533 63.3594 9.448C63.1834 9.24533 62.9674 9.09067 62.7114 8.984C62.4554 8.872 62.1647 8.816 61.8394 8.816C61.1567 8.816 60.6154 9.016 60.2154 9.416C59.8207 9.81067 59.5754 10.36 59.4794 11.064H63.9114ZM65.0634 14.864C64.8874 15.0773 64.6767 15.264 64.4314 15.424C64.186 15.5787 63.922 15.7067 63.6394 15.808C63.362 15.9093 63.074 15.984 62.7754 16.032C62.4767 16.0853 62.1807 16.112 61.8874 16.112C61.3274 16.112 60.81 16.0187 60.3354 15.832C59.866 15.64 59.458 15.3627 59.1114 15C58.77 14.632 58.5034 14.1787 58.3114 13.64C58.1194 13.1013 58.0234 12.4827 58.0234 11.784C58.0234 11.2187 58.1087 10.6907 58.2794 10.2C58.4554 9.70933 58.706 9.28533 59.0314 8.928C59.3567 8.56533 59.754 8.28267 60.2234 8.08C60.6927 7.872 61.2207 7.768 61.8074 7.768C62.2927 7.768 62.7407 7.85067 63.1514 8.016C63.5674 8.176 63.9247 8.41067 64.2234 8.72C64.5274 9.024 64.7647 9.40267 64.9354 9.856C65.106 10.304 65.1914 10.816 65.1914 11.392C65.1914 11.616 65.1674 11.7653 65.1194 11.84C65.0714 11.9147 64.9807 11.952 64.8474 11.952H59.4314C59.4474 12.464 59.5167 12.9093 59.6394 13.288C59.7674 13.6667 59.9434 13.984 60.1674 14.24C60.3914 14.4907 60.658 14.68 60.9674 14.808C61.2767 14.9307 61.6234 14.992 62.0074 14.992C62.3647 14.992 62.6714 14.952 62.9274 14.872C63.1887 14.7867 63.4127 14.696 63.5994 14.6C63.786 14.504 63.9407 14.416 64.0634 14.336C64.1914 14.2507 64.3007 14.208 64.3914 14.208C64.5087 14.208 64.5994 14.2533 64.6634 14.344L65.0634 14.864ZM68.3725 14.048C68.6338 14.4 68.9192 14.648 69.2285 14.792C69.5432 14.936 69.8872 15.008 70.2605 15.008C71.0232 15.008 71.6072 14.7387 72.0125 14.2C72.4178 13.6613 72.6205 12.8587 72.6205 11.792C72.6205 10.8 72.4392 10.072 72.0765 9.608C71.7192 9.13867 71.2072 8.904 70.5405 8.904C70.0765 8.904 69.6712 9.01067 69.3245 9.224C68.9832 9.43733 68.6658 9.73867 68.3725 10.128V14.048ZM68.3725 9.064C68.7138 8.66933 69.0978 8.35467 69.5245 8.12C69.9565 7.88533 70.4525 7.768 71.0125 7.768C71.4872 7.768 71.9138 7.85867 72.2925 8.04C72.6765 8.22133 73.0018 8.48533 73.2685 8.832C73.5352 9.17333 73.7378 9.58933 73.8765 10.08C74.0205 10.5707 74.0925 11.1227 74.0925 11.736C74.0925 12.392 74.0125 12.9893 73.8525 13.528C73.6925 14.0667 73.4605 14.528 73.1565 14.912C72.8578 15.2907 72.4925 15.5867 72.0605 15.8C71.6285 16.008 71.1432 16.112 70.6045 16.112C70.0712 16.112 69.6205 16.0133 69.2525 15.816C68.8898 15.6133 68.5725 15.328 68.3005 14.96L68.2285 15.696C68.1858 15.8987 68.0632 16 67.8605 16H66.9405V4.216H68.3725V9.064ZM79.3096 7.768C79.9016 7.768 80.435 7.86667 80.9096 8.064C81.3843 8.26133 81.7896 8.54133 82.1256 8.904C82.4616 9.26667 82.7176 9.70667 82.8936 10.224C83.075 10.736 83.1656 11.3093 83.1656 11.944C83.1656 12.584 83.075 13.16 82.8936 13.672C82.7176 14.184 82.4616 14.6213 82.1256 14.984C81.7896 15.3467 81.3843 15.6267 80.9096 15.824C80.435 16.016 79.9016 16.112 79.3096 16.112C78.7123 16.112 78.1736 16.016 77.6936 15.824C77.219 15.6267 76.8136 15.3467 76.4776 14.984C76.1416 14.6213 75.883 14.184 75.7016 13.672C75.5256 13.16 75.4376 12.584 75.4376 11.944C75.4376 11.3093 75.5256 10.736 75.7016 10.224C75.883 9.70667 76.1416 9.26667 76.4776 8.904C76.8136 8.54133 77.219 8.26133 77.6936 8.064C78.1736 7.86667 78.7123 7.768 79.3096 7.768ZM79.3096 15C80.1096 15 80.707 14.7333 81.1016 14.2C81.4963 13.6613 81.6936 12.912 81.6936 11.952C81.6936 10.9867 81.4963 10.2347 81.1016 9.696C80.707 9.15733 80.1096 8.888 79.3096 8.888C78.9043 8.888 78.5496 8.95733 78.2456 9.096C77.947 9.23467 77.6963 9.43467 77.4936 9.696C77.2963 9.95733 77.147 10.28 77.0456 10.664C76.9496 11.0427 76.9016 11.472 76.9016 11.952C76.9016 12.912 77.099 13.6613 77.4936 14.2C77.8936 14.7333 78.499 15 79.3096 15ZM88.3878 7.768C88.9798 7.768 89.5131 7.86667 89.9878 8.064C90.4624 8.26133 90.8678 8.54133 91.2038 8.904C91.5398 9.26667 91.7958 9.70667 91.9718 10.224C92.1531 10.736 92.2438 11.3093 92.2438 11.944C92.2438 12.584 92.1531 13.16 91.9718 13.672C91.7958 14.184 91.5398 14.6213 91.2038 14.984C90.8678 15.3467 90.4624 15.6267 89.9878 15.824C89.5131 16.016 88.9798 16.112 88.3878 16.112C87.7904 16.112 87.2518 16.016 86.7718 15.824C86.2971 15.6267 85.8918 15.3467 85.5558 14.984C85.2198 14.6213 84.9611 14.184 84.7798 13.672C84.6038 13.16 84.5158 12.584 84.5158 11.944C84.5158 11.3093 84.6038 10.736 84.7798 10.224C84.9611 9.70667 85.2198 9.26667 85.5558 8.904C85.8918 8.54133 86.2971 8.26133 86.7718 8.064C87.2518 7.86667 87.7904 7.768 88.3878 7.768ZM88.3878 15C89.1878 15 89.7851 14.7333 90.1798 14.2C90.5744 13.6613 90.7718 12.912 90.7718 11.952C90.7718 10.9867 90.5744 10.2347 90.1798 9.696C89.7851 9.15733 89.1878 8.888 88.3878 8.888C87.9824 8.888 87.6278 8.95733 87.3238 9.096C87.0251 9.23467 86.7744 9.43467 86.5718 9.696C86.3744 9.95733 86.2251 10.28 86.1238 10.664C86.0278 11.0427 85.9798 11.472 85.9798 11.952C85.9798 12.912 86.1771 13.6613 86.5718 14.2C86.9718 14.7333 87.5771 15 88.3878 15ZM95.4819 4.216V11.152H95.8499C95.9565 11.152 96.0445 11.1387 96.1139 11.112C96.1885 11.08 96.2659 11.0187 96.3459 10.928L98.9059 8.184C98.9805 8.09333 99.0579 8.024 99.1379 7.976C99.2232 7.92267 99.3352 7.896 99.4739 7.896H100.762L97.7779 11.072C97.6339 11.2533 97.4792 11.3947 97.3139 11.496C97.4099 11.56 97.4952 11.6347 97.5699 11.72C97.6499 11.8 97.7245 11.8933 97.7939 12L100.962 16H99.6899C99.5672 16 99.4605 15.9813 99.3699 15.944C99.2845 15.9013 99.2099 15.8267 99.1459 15.72L96.4819 12.4C96.4019 12.288 96.3219 12.216 96.2419 12.184C96.1672 12.1467 96.0499 12.128 95.8899 12.128H95.4819V16H94.0499V4.216H95.4819Z" fill="white"/>
<defs>
<clipPath id="clip0_339_347">
<rect width="16" height="16" fill="white" transform="translate(0 1)"/>
</clipPath>
</defs>
</svg>
