<svg width="104" height="19" viewBox="0 0 104 19" fill="none" xmlns="http://www.w3.org/2000/svg">
<g clip-path="url(#clip0_339_369)">
<path d="M0.999807 3.08691C-0.257526 4.39291 -0.000192679 5.78024 -0.000192679 9.99491C-0.000192679 13.4949 -0.610859 17.0036 2.58514 17.8296C3.58314 18.0862 12.4258 18.0862 13.4225 17.8282C14.7531 17.4849 15.8358 16.4056 15.9838 14.5236C16.0045 14.2609 16.0045 5.73357 15.9831 5.46557C15.8258 3.46091 14.5918 2.30557 12.9658 2.07157C12.5931 2.01757 12.5185 2.00157 10.6065 1.99824C3.82447 2.00157 2.33781 1.69957 0.999807 3.08691Z" fill="url(#paint0_linear_339_369)"/>
<path d="M7.99594 4.09164C5.57527 4.09164 3.27661 3.87631 2.39861 6.12964C2.03594 7.06031 2.08861 8.26897 2.08861 9.99964C2.08861 11.5183 2.03994 12.9456 2.39861 13.869C3.27461 16.1236 5.59194 15.9076 7.99461 15.9076C10.3126 15.9076 12.7026 16.149 13.5913 13.869C13.9546 12.929 13.9013 11.7383 13.9013 9.99964C13.9013 7.69164 14.0286 6.20164 12.9093 5.08297C11.7759 3.94964 10.2433 4.09164 7.99327 4.09164H7.99594ZM7.46661 5.15631C12.5159 5.14831 13.1586 4.58697 12.8039 12.385C12.6779 15.143 10.5779 14.8403 7.9966 14.8403C3.28994 14.8403 3.15461 14.7056 3.15461 9.99697C3.15461 5.23364 3.52794 5.15897 7.46661 5.15497V5.15631ZM11.1493 6.13697C10.7579 6.13697 10.4406 6.45431 10.4406 6.84564C10.4406 7.23697 10.7579 7.55431 11.1493 7.55431C11.5406 7.55431 11.8579 7.23697 11.8579 6.84564C11.8579 6.45431 11.5406 6.13697 11.1493 6.13697ZM7.99594 6.96564C6.32061 6.96564 4.96261 8.32431 4.96261 9.99964C4.96261 11.675 6.32061 13.033 7.99594 13.033C9.67127 13.033 11.0286 11.675 11.0286 9.99964C11.0286 8.32431 9.67127 6.96564 7.99594 6.96564ZM7.99594 8.03031C10.5993 8.03031 10.6026 11.969 7.99594 11.969C5.39327 11.969 5.38927 8.03031 7.99594 8.03031Z" fill="white"/>
</g>
<path d="M37.016 16H35.464V4.536H37.016V16ZM40.8314 9.072C41.0074 8.87467 41.194 8.696 41.3914 8.536C41.5887 8.376 41.7967 8.24 42.0154 8.128C42.2394 8.01067 42.474 7.92267 42.7194 7.864C42.97 7.8 43.2394 7.768 43.5274 7.768C43.97 7.768 44.3594 7.84267 44.6954 7.992C45.0367 8.136 45.3194 8.344 45.5434 8.616C45.7727 8.88267 45.946 9.20533 46.0634 9.584C46.1807 9.96267 46.2394 10.3813 46.2394 10.84V16H44.8074V10.84C44.8074 10.2267 44.666 9.752 44.3834 9.416C44.106 9.07467 43.682 8.904 43.1114 8.904C42.69 8.904 42.2954 9.00533 41.9274 9.208C41.5647 9.41067 41.2287 9.68533 40.9194 10.032V16H39.4874V7.896H40.3434C40.546 7.896 40.6714 7.99467 40.7194 8.192L40.8314 9.072ZM53.1293 9.232C53.0653 9.34933 52.9666 9.408 52.8333 9.408C52.7533 9.408 52.6626 9.37867 52.5613 9.32C52.4599 9.26133 52.3346 9.19733 52.1853 9.128C52.0413 9.05333 51.8679 8.98667 51.6653 8.928C51.4626 8.864 51.2226 8.832 50.9453 8.832C50.7053 8.832 50.4893 8.864 50.2973 8.928C50.1053 8.98667 49.9399 9.06933 49.8013 9.176C49.6679 9.28267 49.5639 9.408 49.4893 9.552C49.4199 9.69067 49.3853 9.84267 49.3853 10.008C49.3853 10.216 49.4439 10.3893 49.5613 10.528C49.6839 10.6667 49.8439 10.7867 50.0413 10.888C50.2386 10.9893 50.4626 11.08 50.7133 11.16C50.9639 11.2347 51.2199 11.3173 51.4813 11.408C51.7479 11.4933 52.0066 11.5893 52.2573 11.696C52.5079 11.8027 52.7319 11.936 52.9293 12.096C53.1266 12.256 53.2839 12.4533 53.4013 12.688C53.5239 12.9173 53.5853 13.1947 53.5853 13.52C53.5853 13.8933 53.5186 14.24 53.3853 14.56C53.2519 14.8747 53.0546 15.1493 52.7933 15.384C52.5319 15.6133 52.2119 15.7947 51.8333 15.928C51.4546 16.0613 51.0173 16.128 50.5213 16.128C49.9559 16.128 49.4439 16.0373 48.9853 15.856C48.5266 15.6693 48.1373 15.432 47.8173 15.144L48.1533 14.6C48.1959 14.5307 48.2466 14.4773 48.3053 14.44C48.3639 14.4027 48.4386 14.384 48.5293 14.384C48.6253 14.384 48.7266 14.4213 48.8333 14.496C48.9399 14.5707 49.0679 14.6533 49.2173 14.744C49.3719 14.8347 49.5586 14.9173 49.7773 14.992C49.9959 15.0667 50.2679 15.104 50.5933 15.104C50.8706 15.104 51.1133 15.0693 51.3212 15C51.5293 14.9253 51.7026 14.8267 51.8413 14.704C51.9799 14.5813 52.0813 14.44 52.1453 14.28C52.2146 14.12 52.2493 13.9493 52.2493 13.768C52.2493 13.544 52.1879 13.36 52.0653 13.216C51.9479 13.0667 51.7906 12.9413 51.5933 12.84C51.3959 12.7333 51.1693 12.6427 50.9133 12.568C50.6626 12.488 50.4039 12.4053 50.1373 12.32C49.8759 12.2347 49.6173 12.1387 49.3613 12.032C49.1106 11.92 48.8866 11.7813 48.6893 11.616C48.4919 11.4507 48.3319 11.248 48.2093 11.008C48.0919 10.7627 48.0333 10.4667 48.0333 10.12C48.0333 9.81067 48.0973 9.51467 48.2253 9.232C48.3533 8.944 48.5399 8.69333 48.7853 8.48C49.0306 8.26133 49.3319 8.088 49.6893 7.96C50.0466 7.832 50.4546 7.768 50.9133 7.768C51.4466 7.768 51.9239 7.85333 52.3453 8.024C52.7719 8.18933 53.1399 8.41867 53.4493 8.712L53.1293 9.232ZM57.8191 16.128C57.1791 16.128 56.6858 15.9493 56.3391 15.592C55.9978 15.2347 55.8271 14.72 55.8271 14.048V9.088H54.8511C54.7658 9.088 54.6938 9.064 54.6351 9.016C54.5765 8.96267 54.5471 8.88267 54.5471 8.776V8.208L55.8751 8.04L56.2031 5.536C56.2191 5.456 56.2538 5.392 56.3071 5.344C56.3658 5.29067 56.4405 5.264 56.5311 5.264H57.2511V8.056H59.5951V9.088H57.2511V13.952C57.2511 14.2933 57.3338 14.5467 57.4991 14.712C57.6645 14.8773 57.8778 14.96 58.1391 14.96C58.2885 14.96 58.4165 14.9413 58.5231 14.904C58.6351 14.8613 58.7311 14.816 58.8111 14.768C58.8911 14.72 58.9578 14.6773 59.0111 14.64C59.0698 14.5973 59.1205 14.576 59.1631 14.576C59.2378 14.576 59.3045 14.6213 59.3631 14.712L59.7791 15.392C59.5338 15.6213 59.2378 15.8027 58.8911 15.936C58.5445 16.064 58.1871 16.128 57.8191 16.128ZM65.4575 12.352C64.8015 12.3733 64.2415 12.4267 63.7775 12.512C63.3188 12.592 62.9428 12.6987 62.6495 12.832C62.3615 12.9653 62.1508 13.1227 62.0175 13.304C61.8895 13.4853 61.8255 13.688 61.8255 13.912C61.8255 14.1253 61.8602 14.3093 61.9295 14.464C61.9988 14.6187 62.0922 14.7467 62.2095 14.848C62.3322 14.944 62.4735 15.016 62.6335 15.064C62.7988 15.1067 62.9748 15.128 63.1615 15.128C63.4122 15.128 63.6415 15.104 63.8495 15.056C64.0575 15.0027 64.2522 14.928 64.4335 14.832C64.6202 14.736 64.7962 14.6213 64.9615 14.488C65.1322 14.3547 65.2975 14.2027 65.4575 14.032V12.352ZM60.8575 9.04C61.3055 8.608 61.7882 8.28533 62.3055 8.072C62.8228 7.85867 63.3962 7.752 64.0255 7.752C64.4788 7.752 64.8815 7.82667 65.2335 7.976C65.5855 8.12533 65.8815 8.33333 66.1215 8.6C66.3615 8.86667 66.5428 9.18933 66.6655 9.568C66.7882 9.94667 66.8495 10.3627 66.8495 10.816V16H66.2175C66.0788 16 65.9722 15.9787 65.8975 15.936C65.8228 15.888 65.7642 15.7973 65.7215 15.664L65.5615 14.896C65.3482 15.0933 65.1402 15.2693 64.9375 15.424C64.7348 15.5733 64.5215 15.7013 64.2975 15.808C64.0735 15.9093 63.8335 15.9867 63.5775 16.04C63.3268 16.0987 63.0468 16.128 62.7375 16.128C62.4228 16.128 62.1268 16.0853 61.8495 16C61.5722 15.9093 61.3295 15.776 61.1215 15.6C60.9188 15.424 60.7562 15.2027 60.6335 14.936C60.5162 14.664 60.4575 14.344 60.4575 13.976C60.4575 13.656 60.5455 13.3493 60.7215 13.056C60.8975 12.7573 61.1828 12.4933 61.5775 12.264C61.9722 12.0347 62.4868 11.848 63.1215 11.704C63.7562 11.5547 64.5348 11.4693 65.4575 11.448V10.816C65.4575 10.1867 65.3215 9.712 65.0495 9.392C64.7775 9.06667 64.3802 8.904 63.8575 8.904C63.5055 8.904 63.2095 8.94933 62.9695 9.04C62.7348 9.12533 62.5295 9.224 62.3535 9.336C62.1828 9.44267 62.0335 9.54133 61.9055 9.632C61.7828 9.71733 61.6602 9.76 61.5375 9.76C61.4415 9.76 61.3588 9.736 61.2895 9.688C61.2202 9.63467 61.1615 9.57067 61.1135 9.496L60.8575 9.04ZM71.8426 12.04C72.1306 12.04 72.384 12 72.6026 11.92C72.8213 11.84 73.0053 11.728 73.1546 11.584C73.304 11.44 73.416 11.2693 73.4906 11.072C73.5653 10.8693 73.6026 10.648 73.6026 10.408C73.6026 9.912 73.4506 9.51733 73.1466 9.224C72.848 8.93067 72.4133 8.784 71.8426 8.784C71.2666 8.784 70.8266 8.93067 70.5226 9.224C70.224 9.51733 70.0746 9.912 70.0746 10.408C70.0746 10.648 70.112 10.8693 70.1866 11.072C70.2666 11.2693 70.3813 11.44 70.5306 11.584C70.68 11.728 70.864 11.84 71.0826 11.92C71.3013 12 71.5546 12.04 71.8426 12.04ZM74.4106 16.44C74.4106 16.2427 74.3546 16.0827 74.2426 15.96C74.1306 15.8373 73.9786 15.7413 73.7866 15.672C73.6 15.6027 73.3813 15.5547 73.1306 15.528C72.88 15.496 72.6133 15.472 72.3306 15.456C72.0533 15.44 71.7706 15.424 71.4826 15.408C71.1946 15.392 70.9173 15.3653 70.6506 15.328C70.352 15.4667 70.1066 15.6427 69.9146 15.856C69.728 16.064 69.6346 16.3093 69.6346 16.592C69.6346 16.7733 69.68 16.9413 69.7706 17.096C69.8666 17.256 70.0106 17.392 70.2026 17.504C70.3946 17.6213 70.6346 17.712 70.9226 17.776C71.216 17.8453 71.56 17.88 71.9546 17.88C72.3386 17.88 72.6826 17.8453 72.9866 17.776C73.2906 17.7067 73.5466 17.608 73.7546 17.48C73.968 17.352 74.1306 17.2 74.2426 17.024C74.3546 16.848 74.4106 16.6533 74.4106 16.44ZM75.8586 8.216V8.744C75.8586 8.92 75.7466 9.032 75.5226 9.08L74.6026 9.2C74.784 9.552 74.8746 9.94133 74.8746 10.368C74.8746 10.7627 74.7973 11.1227 74.6426 11.448C74.4933 11.768 74.2853 12.0427 74.0186 12.272C73.752 12.5013 73.432 12.6773 73.0586 12.8C72.6853 12.9227 72.28 12.984 71.8426 12.984C71.464 12.984 71.1066 12.9387 70.7706 12.848C70.6 12.9547 70.4693 13.0693 70.3786 13.192C70.288 13.3093 70.2426 13.4293 70.2426 13.552C70.2426 13.744 70.32 13.8907 70.4746 13.992C70.6346 14.088 70.8426 14.1573 71.0986 14.2C71.3546 14.2427 71.6453 14.2693 71.9706 14.28C72.3013 14.2907 72.6373 14.3093 72.9786 14.336C73.3253 14.3573 73.6613 14.3973 73.9866 14.456C74.3173 14.5147 74.6106 14.6107 74.8666 14.744C75.1226 14.8773 75.328 15.0613 75.4826 15.296C75.6426 15.5307 75.7226 15.8347 75.7226 16.208C75.7226 16.5547 75.6346 16.8907 75.4586 17.216C75.288 17.5413 75.04 17.8293 74.7146 18.08C74.3893 18.336 73.9893 18.5387 73.5146 18.688C73.0453 18.8427 72.5146 18.92 71.9226 18.92C71.3306 18.92 70.8133 18.8613 70.3706 18.744C69.928 18.6267 69.56 18.4693 69.2666 18.272C68.9733 18.0747 68.752 17.8453 68.6026 17.584C68.4586 17.328 68.3866 17.0587 68.3866 16.776C68.3866 16.376 68.512 16.0373 68.7626 15.76C69.0133 15.4827 69.3573 15.2613 69.7946 15.096C69.5546 14.9893 69.3626 14.848 69.2186 14.672C69.08 14.4907 69.0106 14.248 69.0106 13.944C69.0106 13.8267 69.032 13.7067 69.0746 13.584C69.1173 13.456 69.1813 13.3307 69.2666 13.208C69.3573 13.08 69.4666 12.96 69.5946 12.848C69.7226 12.736 69.872 12.6373 70.0426 12.552C69.6426 12.328 69.3306 12.032 69.1066 11.664C68.8826 11.2907 68.7706 10.8587 68.7706 10.368C68.7706 9.97333 68.8453 9.616 68.9946 9.296C69.1493 8.97067 69.3626 8.696 69.6346 8.472C69.9066 8.24267 70.2293 8.06667 70.6026 7.944C70.9813 7.82133 71.3946 7.76 71.8426 7.76C72.1946 7.76 72.5226 7.8 72.8266 7.88C73.1306 7.95467 73.408 8.06667 73.6586 8.216H75.8586ZM78.6831 9.52C78.9391 8.96533 79.2538 8.53333 79.6271 8.224C80.0005 7.90933 80.4565 7.752 80.9951 7.752C81.1658 7.752 81.3285 7.77067 81.4831 7.808C81.6431 7.84533 81.7845 7.904 81.9071 7.984L81.8031 9.048C81.7711 9.18133 81.6911 9.248 81.5631 9.248C81.4885 9.248 81.3791 9.232 81.2351 9.2C81.0911 9.168 80.9285 9.152 80.7471 9.152C80.4911 9.152 80.2618 9.18933 80.0591 9.264C79.8618 9.33867 79.6831 9.45067 79.5231 9.6C79.3685 9.744 79.2271 9.92533 79.0991 10.144C78.9765 10.3573 78.8645 10.6027 78.7631 10.88V16H77.3311V7.896H78.1471C78.3018 7.896 78.4085 7.92533 78.4671 7.984C78.5258 8.04267 78.5658 8.144 78.5871 8.288L78.6831 9.52ZM87.4263 12.352C86.7703 12.3733 86.2103 12.4267 85.7463 12.512C85.2876 12.592 84.9116 12.6987 84.6183 12.832C84.3303 12.9653 84.1196 13.1227 83.9863 13.304C83.8583 13.4853 83.7943 13.688 83.7943 13.912C83.7943 14.1253 83.8289 14.3093 83.8983 14.464C83.9676 14.6187 84.0609 14.7467 84.1783 14.848C84.3009 14.944 84.4423 15.016 84.6023 15.064C84.7676 15.1067 84.9436 15.128 85.1303 15.128C85.3809 15.128 85.6103 15.104 85.8183 15.056C86.0263 15.0027 86.2209 14.928 86.4023 14.832C86.5889 14.736 86.7649 14.6213 86.9303 14.488C87.1009 14.3547 87.2663 14.2027 87.4263 14.032V12.352ZM82.8263 9.04C83.2743 8.608 83.7569 8.28533 84.2743 8.072C84.7916 7.85867 85.3649 7.752 85.9943 7.752C86.4476 7.752 86.8503 7.82667 87.2023 7.976C87.5543 8.12533 87.8503 8.33333 88.0903 8.6C88.3303 8.86667 88.5116 9.18933 88.6343 9.568C88.7569 9.94667 88.8183 10.3627 88.8183 10.816V16H88.1863C88.0476 16 87.9409 15.9787 87.8663 15.936C87.7916 15.888 87.7329 15.7973 87.6903 15.664L87.5303 14.896C87.3169 15.0933 87.1089 15.2693 86.9062 15.424C86.7036 15.5733 86.4903 15.7013 86.2663 15.808C86.0423 15.9093 85.8023 15.9867 85.5463 16.04C85.2956 16.0987 85.0156 16.128 84.7063 16.128C84.3916 16.128 84.0956 16.0853 83.8183 16C83.5409 15.9093 83.2983 15.776 83.0903 15.6C82.8876 15.424 82.7249 15.2027 82.6023 14.936C82.4849 14.664 82.4263 14.344 82.4263 13.976C82.4263 13.656 82.5143 13.3493 82.6903 13.056C82.8663 12.7573 83.1516 12.4933 83.5463 12.264C83.9409 12.0347 84.4556 11.848 85.0903 11.704C85.7249 11.5547 86.5036 11.4693 87.4263 11.448V10.816C87.4263 10.1867 87.2903 9.712 87.0183 9.392C86.7463 9.06667 86.3489 8.904 85.8263 8.904C85.4743 8.904 85.1783 8.94933 84.9383 9.04C84.7036 9.12533 84.4983 9.224 84.3223 9.336C84.1516 9.44267 84.0023 9.54133 83.8743 9.632C83.7516 9.71733 83.6289 9.76 83.5063 9.76C83.4103 9.76 83.3276 9.736 83.2583 9.688C83.1889 9.63467 83.1303 9.57067 83.0822 9.496L82.8263 9.04ZM90.9874 16V7.896H91.8434C92.046 7.896 92.1714 7.99467 92.2194 8.192L92.3234 9.024C92.622 8.656 92.958 8.35467 93.3314 8.12C93.7047 7.88533 94.1367 7.768 94.6274 7.768C95.1714 7.768 95.6114 7.92 95.9474 8.224C96.2887 8.528 96.534 8.93867 96.6834 9.456C96.8007 9.16267 96.95 8.90933 97.1314 8.696C97.318 8.48267 97.526 8.30667 97.7554 8.168C97.9847 8.02933 98.2274 7.928 98.4834 7.864C98.7447 7.8 99.0087 7.768 99.2754 7.768C99.702 7.768 100.081 7.83733 100.411 7.976C100.747 8.10933 101.03 8.30667 101.259 8.568C101.494 8.82933 101.673 9.152 101.795 9.536C101.918 9.91467 101.979 10.3493 101.979 10.84V16H100.547V10.84C100.547 10.2053 100.409 9.72533 100.131 9.4C99.854 9.06933 99.454 8.904 98.9314 8.904C98.6967 8.904 98.4727 8.94667 98.2594 9.032C98.0514 9.112 97.8674 9.232 97.7074 9.392C97.5474 9.552 97.4194 9.75467 97.3234 10C97.2327 10.24 97.1874 10.52 97.1874 10.84V16H95.7554V10.84C95.7554 10.1893 95.6247 9.704 95.3634 9.384C95.102 9.064 94.7207 8.904 94.2194 8.904C93.8674 8.904 93.542 9 93.2434 9.192C92.9447 9.37867 92.67 9.63467 92.4194 9.96V16H90.9874Z" fill="white"/>
<defs>
<linearGradient id="paint0_linear_339_369" x1="1.03049" y1="16.9763" x2="15.9008" y2="4.10622" gradientUnits="userSpaceOnUse">
<stop stop-color="#FFDD55"/>
<stop offset="0.5" stop-color="#FF543E"/>
<stop offset="1" stop-color="#C837AB"/>
</linearGradient>
<clipPath id="clip0_339_369">
<rect width="16" height="16" fill="white" transform="translate(0 2)"/>
</clipPath>
</defs>
</svg>
