<svg width="93" height="19" viewBox="0 0 93 19" fill="none" xmlns="http://www.w3.org/2000/svg">
<g clip-path="url(#clip0_339_359)">
<path d="M13.8182 2H2.18182C0.976833 2 0 2.97683 0 4.18182V15.8182C0 17.0232 0.976833 18 2.18182 18H13.8182C15.0232 18 16 17.0232 16 15.8182V4.18182C16 2.97683 15.0232 2 13.8182 2Z" fill="#0077B5"/>
<path d="M5.76634 6.36364C5.76634 6.63334 5.68636 6.89698 5.53652 7.12123C5.38668 7.34548 5.17371 7.52026 4.92454 7.62347C4.67537 7.72668 4.40119 7.75369 4.13667 7.70107C3.87215 7.64846 3.62917 7.51858 3.43846 7.32787C3.24776 7.13717 3.11788 6.89419 3.06527 6.62967C3.01265 6.36515 3.03965 6.09097 3.14286 5.8418C3.24607 5.59262 3.42086 5.37965 3.6451 5.22981C3.86935 5.07998 4.133 5 4.4027 5C4.76436 5 5.1112 5.14367 5.36694 5.3994C5.62267 5.65513 5.76634 6.00198 5.76634 6.36364Z" fill="white"/>
<path d="M5.45648 8.63506V14.6596C5.45672 14.704 5.44817 14.7481 5.43133 14.7892C5.41449 14.8304 5.38968 14.8678 5.35834 14.8993C5.327 14.9308 5.28973 14.9558 5.2487 14.9728C5.20766 14.9899 5.16365 14.9987 5.11921 14.9987H3.68193C3.63749 14.9988 3.59346 14.9901 3.55237 14.9732C3.51129 14.9562 3.47396 14.9313 3.44253 14.8999C3.41111 14.8685 3.3862 14.8312 3.36925 14.7901C3.3523 14.749 3.34363 14.705 3.34375 14.6605V8.63506C3.34375 8.54537 3.37938 8.45935 3.4428 8.39593C3.50622 8.3325 3.59224 8.29688 3.68193 8.29688H5.11921C5.20874 8.29712 5.29452 8.33285 5.35775 8.39625C5.42097 8.45964 5.45648 8.54552 5.45648 8.63506Z" fill="white"/>
<path d="M12.9672 11.7738V14.6901C12.9673 14.731 12.9593 14.7715 12.9437 14.8092C12.9282 14.847 12.9053 14.8813 12.8764 14.9102C12.8475 14.9391 12.8131 14.962 12.7754 14.9776C12.7376 14.9932 12.6971 15.0012 12.6563 15.001H11.1108C11.0699 15.0012 11.0295 14.9932 10.9917 14.9776C10.9539 14.962 10.9196 14.9391 10.8907 14.9102C10.8618 14.8813 10.8389 14.847 10.8233 14.8092C10.8077 14.7715 10.7998 14.731 10.7999 14.6901V11.8638C10.7999 11.4419 10.9235 10.0165 9.69716 10.0165C8.74716 10.0165 8.55352 10.9919 8.51534 11.4301V14.6901C8.51535 14.7718 8.48322 14.8502 8.42589 14.9084C8.36856 14.9666 8.29065 14.9998 8.20898 15.001H6.71625C6.67546 15.001 6.63508 14.993 6.59741 14.9774C6.55974 14.9617 6.52552 14.9388 6.49673 14.9099C6.46793 14.881 6.44511 14.8468 6.42959 14.809C6.41406 14.7713 6.40613 14.7309 6.40625 14.6901V8.61104C6.40613 8.57025 6.41406 8.52984 6.42959 8.49213C6.44511 8.45441 6.46793 8.42013 6.49673 8.39125C6.52552 8.36236 6.55974 8.33945 6.59741 8.32381C6.63508 8.30818 6.67546 8.30013 6.71625 8.30013H8.20898C8.29144 8.30013 8.37052 8.33288 8.42882 8.39119C8.48713 8.4495 8.51989 8.52858 8.51989 8.61104V9.13649C8.87262 8.6074 9.39534 8.19922 10.5108 8.19922C12.9817 8.19922 12.9672 10.5065 12.9672 11.7738Z" fill="white"/>
</g>
<path d="M41.968 14.696V16H35.464V4.536H37.008V14.696H41.968ZM44.8508 7.896V16H43.4268V7.896H44.8508ZM45.1548 5.352C45.1548 5.49067 45.1254 5.62133 45.0668 5.744C45.0134 5.86133 44.9388 5.968 44.8428 6.064C44.7521 6.15467 44.6428 6.22667 44.5148 6.28C44.3921 6.33333 44.2614 6.36 44.1228 6.36C43.9841 6.36 43.8534 6.33333 43.7308 6.28C43.6134 6.22667 43.5094 6.15467 43.4188 6.064C43.3281 5.968 43.2561 5.86133 43.2028 5.744C43.1494 5.62133 43.1228 5.49067 43.1228 5.352C43.1228 5.21333 43.1494 5.08267 43.2028 4.96C43.2561 4.832 43.3281 4.72267 43.4188 4.632C43.5094 4.536 43.6134 4.46133 43.7308 4.408C43.8534 4.35467 43.9841 4.328 44.1228 4.328C44.2614 4.328 44.3921 4.35467 44.5148 4.408C44.6428 4.46133 44.7521 4.536 44.8428 4.632C44.9388 4.72267 45.0134 4.832 45.0668 4.96C45.1254 5.08267 45.1548 5.21333 45.1548 5.352ZM48.5345 9.072C48.7105 8.87467 48.8972 8.696 49.0945 8.536C49.2918 8.376 49.4998 8.24 49.7185 8.128C49.9425 8.01067 50.1772 7.92267 50.4225 7.864C50.6732 7.8 50.9425 7.768 51.2305 7.768C51.6732 7.768 52.0625 7.84267 52.3985 7.992C52.7398 8.136 53.0225 8.344 53.2465 8.616C53.4758 8.88267 53.6492 9.20533 53.7665 9.584C53.8838 9.96267 53.9425 10.3813 53.9425 10.84V16H52.5105V10.84C52.5105 10.2267 52.3692 9.752 52.0865 9.416C51.8092 9.07467 51.3852 8.904 50.8145 8.904C50.3932 8.904 49.9985 9.00533 49.6305 9.208C49.2678 9.41067 48.9318 9.68533 48.6225 10.032V16H47.1905V7.896H48.0465C48.2492 7.896 48.3745 7.99467 48.4225 8.192L48.5345 9.072ZM57.5444 4.216V11.152H57.9124C58.019 11.152 58.107 11.1387 58.1764 11.112C58.251 11.08 58.3284 11.0187 58.4084 10.928L60.9684 8.184C61.043 8.09333 61.1204 8.024 61.2004 7.976C61.2857 7.92267 61.3977 7.896 61.5364 7.896H62.8244L59.8404 11.072C59.6964 11.2533 59.5417 11.3947 59.3764 11.496C59.4724 11.56 59.5577 11.6347 59.6324 11.72C59.7124 11.8 59.787 11.8933 59.8564 12L63.0244 16H61.7524C61.6297 16 61.523 15.9813 61.4324 15.944C61.347 15.9013 61.2724 15.8267 61.2084 15.72L58.5444 12.4C58.4644 12.288 58.3844 12.216 58.3044 12.184C58.2297 12.1467 58.1124 12.128 57.9524 12.128H57.5444V16H56.1124V4.216H57.5444ZM69.2083 11.064C69.2083 10.7333 69.1603 10.432 69.0643 10.16C68.9736 9.88267 68.8376 9.64533 68.6563 9.448C68.4803 9.24533 68.2643 9.09067 68.0083 8.984C67.7523 8.872 67.4616 8.816 67.1363 8.816C66.4536 8.816 65.9123 9.016 65.5123 9.416C65.1176 9.81067 64.8723 10.36 64.7763 11.064H69.2083ZM70.3603 14.864C70.1843 15.0773 69.9736 15.264 69.7283 15.424C69.4829 15.5787 69.2189 15.7067 68.9363 15.808C68.6589 15.9093 68.3709 15.984 68.0723 16.032C67.7736 16.0853 67.4776 16.112 67.1843 16.112C66.6243 16.112 66.1069 16.0187 65.6323 15.832C65.1629 15.64 64.7549 15.3627 64.4083 15C64.0669 14.632 63.8003 14.1787 63.6083 13.64C63.4163 13.1013 63.3203 12.4827 63.3203 11.784C63.3203 11.2187 63.4056 10.6907 63.5763 10.2C63.7523 9.70933 64.0029 9.28533 64.3283 8.928C64.6536 8.56533 65.0509 8.28267 65.5203 8.08C65.9896 7.872 66.5176 7.768 67.1043 7.768C67.5896 7.768 68.0376 7.85067 68.4483 8.016C68.8643 8.176 69.2216 8.41067 69.5203 8.72C69.8243 9.024 70.0616 9.40267 70.2323 9.856C70.4029 10.304 70.4883 10.816 70.4883 11.392C70.4883 11.616 70.4643 11.7653 70.4163 11.84C70.3683 11.9147 70.2776 11.952 70.1443 11.952H64.7283C64.7443 12.464 64.8136 12.9093 64.9363 13.288C65.0643 13.6667 65.2403 13.984 65.4643 14.24C65.6883 14.4907 65.9549 14.68 66.2643 14.808C66.5736 14.9307 66.9203 14.992 67.3043 14.992C67.6616 14.992 67.9683 14.952 68.2243 14.872C68.4856 14.7867 68.7096 14.696 68.8963 14.6C69.0829 14.504 69.2376 14.416 69.3603 14.336C69.4883 14.2507 69.5976 14.208 69.6883 14.208C69.8056 14.208 69.8963 14.2533 69.9603 14.344L70.3603 14.864ZM77.5174 9.824C77.2507 9.46667 76.9627 9.21867 76.6534 9.08C76.344 8.936 75.9974 8.864 75.6134 8.864C74.8614 8.864 74.2827 9.13333 73.8774 9.672C73.472 10.2107 73.2694 10.9787 73.2694 11.976C73.2694 12.504 73.3147 12.9573 73.4054 13.336C73.496 13.7093 73.6294 14.0187 73.8054 14.264C73.9814 14.504 74.1974 14.68 74.4534 14.792C74.7094 14.904 75 14.96 75.3254 14.96C75.7947 14.96 76.2027 14.8533 76.5494 14.64C76.9014 14.4267 77.224 14.1253 77.5174 13.736V9.824ZM78.9414 4.216V16H78.0934C77.8907 16 77.7627 15.9013 77.7094 15.704L77.5814 14.72C77.2347 15.136 76.84 15.472 76.3974 15.728C75.9547 15.984 75.4427 16.112 74.8614 16.112C74.3974 16.112 73.976 16.024 73.5974 15.848C73.2187 15.6667 72.896 15.4027 72.6294 15.056C72.3627 14.7093 72.1574 14.2773 72.0134 13.76C71.8694 13.2427 71.7974 12.648 71.7974 11.976C71.7974 11.3787 71.8774 10.824 72.0374 10.312C72.1974 9.79467 72.4267 9.34667 72.7254 8.968C73.024 8.58933 73.3894 8.29333 73.8214 8.08C74.2587 7.86133 74.7494 7.752 75.2934 7.752C75.7894 7.752 76.2134 7.83733 76.5654 8.008C76.9227 8.17333 77.24 8.40533 77.5174 8.704V4.216H78.9414ZM82.6945 7.896V16H81.2705V7.896H82.6945ZM82.9985 5.352C82.9985 5.49067 82.9692 5.62133 82.9105 5.744C82.8572 5.86133 82.7825 5.968 82.6865 6.064C82.5958 6.15467 82.4865 6.22667 82.3585 6.28C82.2358 6.33333 82.1052 6.36 81.9665 6.36C81.8278 6.36 81.6972 6.33333 81.5745 6.28C81.4572 6.22667 81.3532 6.15467 81.2625 6.064C81.1718 5.968 81.0998 5.86133 81.0465 5.744C80.9932 5.62133 80.9665 5.49067 80.9665 5.352C80.9665 5.21333 80.9932 5.08267 81.0465 4.96C81.0998 4.832 81.1718 4.72267 81.2625 4.632C81.3532 4.536 81.4572 4.46133 81.5745 4.408C81.6972 4.35467 81.8278 4.328 81.9665 4.328C82.1052 4.328 82.2358 4.35467 82.3585 4.408C82.4865 4.46133 82.5958 4.536 82.6865 4.632C82.7825 4.72267 82.8572 4.832 82.9105 4.96C82.9692 5.08267 82.9985 5.21333 82.9985 5.352ZM86.3783 9.072C86.5543 8.87467 86.7409 8.696 86.9383 8.536C87.1356 8.376 87.3436 8.24 87.5623 8.128C87.7863 8.01067 88.0209 7.92267 88.2663 7.864C88.5169 7.8 88.7863 7.768 89.0743 7.768C89.5169 7.768 89.9063 7.84267 90.2423 7.992C90.5836 8.136 90.8663 8.344 91.0903 8.616C91.3196 8.88267 91.4929 9.20533 91.6103 9.584C91.7276 9.96267 91.7863 10.3813 91.7863 10.84V16H90.3543V10.84C90.3543 10.2267 90.2129 9.752 89.9303 9.416C89.6529 9.07467 89.2289 8.904 88.6583 8.904C88.2369 8.904 87.8423 9.00533 87.4743 9.208C87.1116 9.41067 86.7756 9.68533 86.4663 10.032V16H85.0343V7.896H85.8903C86.0929 7.896 86.2183 7.99467 86.2663 8.192L86.3783 9.072Z" fill="white"/>
<defs>
<clipPath id="clip0_339_359">
<rect width="16" height="16" fill="white" transform="translate(0 2)"/>
</clipPath>
</defs>
</svg>
