<svg width="190" height="70" viewBox="0 0 190 70" fill="none" xmlns="http://www.w3.org/2000/svg">
<path fill-rule="evenodd" clip-rule="evenodd" d="M63.9159 5.55883C63.9159 4.61665 62.7633 4.13151 61.9558 4.61665L58.6126 6.52911C57.8636 6.98763 57.3159 7.47278 57.3159 8.47116V33.3687C57.3159 34.197 57.5464 34.9958 58.3541 35.8817C59.8224 37.5088 63.3684 39.8796 68.4986 39.8796C76.3671 39.8796 82.0155 35.0533 82.0155 27.9153C82.0155 20.4636 77.173 16.266 70.8331 16.266C68.3253 16.266 65.559 16.8088 63.9454 17.893V5.55883H63.9159ZM108.559 21.9767C108.559 21.0065 108.559 20.3778 107.665 19.6352C105.389 17.6371 101.902 16.3222 97.2902 16.3222C89.6522 16.3222 83.9169 20.9207 83.9169 28.2289C83.9169 35.7959 89.1632 39.9358 95.2434 39.9358C98.5015 39.9358 100.779 38.7379 101.989 36.7957V37.6803C101.989 38.6224 102.621 39.2792 103.516 39.2792H107.06C107.954 39.2792 108.587 38.6224 108.587 37.6816V21.9752H108.558L108.559 21.9767ZM174.212 22.3761H183.925C184.876 22.3761 185.481 21.8052 185.481 20.9207V18.6355C185.481 17.751 184.847 17.1801 183.925 17.1801H174.212V9.38524C174.212 8.41496 172.973 8.01412 172.252 8.44306L168.91 10.3555C168.162 10.814 167.614 11.2977 167.614 12.2976V28.6579C167.614 35.8239 172.082 39.9078 178.97 39.9078C180.965 39.9415 182.93 39.4176 184.647 38.3947C185.54 37.8238 185.944 37.1094 185.944 36.309V33.6541C185.944 32.9975 185.453 32.6838 184.965 32.6838C184.417 32.6838 183.984 33.0832 183.408 33.4826C182.687 33.9693 181.563 34.5402 179.748 34.5402C176.261 34.5402 174.242 32.4546 174.242 28.8575V22.3761H174.212ZM129.281 31.3704C128.887 32.3325 128.214 33.1524 127.351 33.7231C126.487 34.2936 125.472 34.5882 124.439 34.5682C120.778 34.5682 119.021 32.3984 119.021 28.7154V18.7789C119.021 17.8368 118.387 17.1801 117.494 17.1801H113.833C112.939 17.1801 112.306 17.8368 112.306 18.7775V28.8309C112.306 35.997 116.341 39.9092 123.084 39.9092C125.678 39.9092 128.013 38.8814 129.252 36.9392V41.0216C129.252 44.7341 126.659 46.3906 123.085 46.3906C120.952 46.3906 119.367 45.762 118.215 45.1926C117.466 44.7917 116.859 44.3923 116.428 44.3923C115.851 44.3923 115.216 44.7341 115.216 45.5343V48.161C115.216 48.7321 115.534 49.4449 116.369 50.0158C117.724 50.9877 120.116 51.7582 123.431 51.7582C129.829 51.7582 135.911 47.9613 135.911 40.6222V18.7789C135.911 17.8368 135.276 17.1801 134.384 17.1801H130.75C129.857 17.1801 129.222 17.8368 129.222 18.7775V31.3704H129.281ZM156.92 31.3704C156.526 32.3325 155.853 33.1524 154.989 33.7231C154.126 34.2936 153.111 34.5882 152.078 34.5682C148.417 34.5682 146.66 32.3984 146.66 28.7154V18.7789C146.66 17.8368 146.026 17.1801 145.133 17.1801H141.472C140.578 17.1801 139.945 17.8368 139.945 18.7775V28.8309C139.945 35.997 143.98 39.9092 150.638 39.9092C153.317 39.9092 155.768 38.8532 156.978 36.7677V37.6536C156.978 38.5957 157.612 39.251 158.504 39.251H162.051C162.943 39.251 163.577 38.5957 163.577 37.6536V18.7804C163.577 17.8382 162.943 17.1815 162.051 17.1815H158.419C157.525 17.1815 156.892 17.8382 156.892 18.7789V31.3719L156.92 31.3704ZM63.9159 23.262C65.3252 22.1461 67.0815 21.5696 68.873 21.6351C72.4188 21.6351 75.0396 23.5757 75.0396 28.115C75.0396 32.8555 72.1869 34.7117 68.384 34.7117C66.7688 34.7117 65.0406 34.1392 63.9159 33.1114V23.262ZM101.901 31.3986C101.181 33.3407 98.9626 34.5402 96.7719 34.5402C93.1113 34.5402 90.7769 32.2844 90.7769 27.9435C90.7769 23.5475 93.6885 21.3481 97.1756 21.3481C99.0198 21.3481 100.807 21.6913 101.902 22.6911L101.901 31.3986ZM31.2921 36.2262C36.5045 36.4586 41.4263 33.8361 44.1043 29.3989C45.4175 27.2279 46.1121 24.7347 46.1121 22.1928C46.1121 19.6506 45.4175 17.1574 44.1043 14.9866C41.4263 10.5493 36.5059 7.92537 31.2921 8.15908C23.7171 8.49778 17.7515 14.6804 17.7515 22.1928C17.7515 29.7049 23.7171 35.8877 31.2921 36.2262ZM35.9039 5.04707C43.3967 7.04088 48.7397 13.5918 49.1333 21.2697C49.5282 28.9462 44.8841 36.0014 37.6337 38.7379C30.3832 41.4756 22.1783 39.2747 17.314 33.2845L17.2288 33.342L7.39863 38.9655C7.04037 39.1726 6.6131 39.2275 6.21226 39.1194C5.81417 39.0136 5.47409 38.7528 5.26668 38.3947L4.0847 36.3684C3.98179 36.1928 3.91496 35.9983 3.88823 35.7963C3.86149 35.5943 3.87537 35.3889 3.92906 35.1924C4.03625 34.7945 4.30055 34.4574 4.66027 34.2547L14.489 28.6579L14.5756 28.6001C12.1265 22.3701 13.423 15.3046 17.9292 10.3274C22.4368 5.35029 29.3848 3.30765 35.9025 5.04559L35.9039 5.04707ZM31.2921 22.1749C29.6477 22.1749 28.2938 23.5166 28.2938 25.145V28.8575C28.2911 29.1475 28.1742 29.4246 27.9689 29.6279C27.7635 29.8311 27.4865 29.9441 27.1984 29.9416H23.1931C22.8346 29.9424 22.4901 29.801 22.2342 29.5482C22.1089 29.4244 22.0093 29.2766 21.941 29.1136C21.873 28.9505 21.8379 28.7755 21.8377 28.5986V20.548C21.8377 18.5482 21.8377 18.3485 22.6159 17.9211L29.649 13.895C30.2818 13.5237 30.7429 13.2664 31.32 13.2664C31.897 13.2664 32.3581 13.5237 32.9909 13.895L40.024 17.9211C40.8022 18.3781 40.8022 18.5482 40.8022 20.548V28.5986C40.801 28.7765 40.765 28.9524 40.6962 29.1164C40.6275 29.2803 40.5273 29.4288 40.4013 29.5535C40.2754 29.6783 40.1263 29.7769 39.9625 29.8434C39.7987 29.9101 39.6236 29.9433 39.447 29.9416H35.4428C35.3002 29.9427 35.1588 29.9157 35.0264 29.8617C34.8942 29.8078 34.7738 29.7281 34.672 29.6274C34.5704 29.5266 34.4894 29.4065 34.4337 29.2742C34.3781 29.1418 34.3488 28.9997 34.3476 28.856V25.1435C34.286 23.5076 32.944 22.2044 31.2921 22.1749Z" fill="#28B16D"/>
<path d="M122.739 59.4788L122.563 59.6711C122.505 59.7243 122.417 59.7243 122.331 59.7243C122.228 59.7222 122.128 59.6942 122.039 59.6431L121.66 59.4508C121.503 59.365 121.336 59.3004 121.163 59.2584C120.954 59.2007 120.738 59.1733 120.522 59.177C120.084 59.177 119.764 59.2598 119.56 59.4508C119.458 59.5386 119.377 59.6477 119.321 59.7706C119.266 59.8935 119.237 60.0271 119.238 60.1622C119.238 60.3543 119.297 60.5171 119.415 60.6281C119.531 60.7376 119.676 60.8471 119.88 60.9563L120.551 61.2035L121.31 61.4224L122.068 61.7226C122.301 61.8321 122.535 61.9696 122.739 62.1603C122.943 62.3246 123.088 62.5449 123.206 62.7905C123.441 63.4398 123.43 64.1454 123.176 64.7873C123.034 65.1141 122.827 65.4114 122.564 65.6644C122.3 65.9098 121.952 66.1021 121.571 66.2664C120.837 66.4867 120.053 66.5237 119.296 66.3759L118.481 66.1569L117.722 65.8019C117.501 65.6699 117.296 65.5137 117.109 65.336L117.663 64.5137L117.839 64.3509C117.927 64.2948 117.985 64.2948 118.073 64.2948C118.197 64.2948 118.322 64.3333 118.422 64.4042L118.86 64.6512C119.036 64.7324 119.209 64.8435 119.413 64.8968C119.666 64.9825 119.933 65.0194 120.202 65.0062C120.639 65.0062 120.989 64.9247 121.222 64.7324C121.456 64.5403 121.571 64.2681 121.571 63.8851C121.58 63.6955 121.518 63.5098 121.397 63.3643C121.271 63.2177 121.11 63.1048 120.93 63.0359C120.714 62.9422 120.489 62.8689 120.259 62.8172C120.004 62.753 119.751 62.6799 119.501 62.5982L118.742 62.3246C118.242 62.1133 117.838 61.7236 117.606 61.2301C117.485 60.9246 117.425 60.5982 117.43 60.2694C117.435 59.9406 117.504 59.616 117.635 59.3146C117.767 59.0144 117.965 58.7438 118.218 58.5203C118.481 58.3014 118.801 58.1106 119.18 57.9732C120.102 57.6796 121.093 57.6895 122.009 58.0012C122.476 58.1639 122.855 58.3842 123.176 58.658L122.739 59.4788ZM124.256 61.1486C125.035 60.5251 126.002 60.1871 126.997 60.1902C127.376 60.1902 127.727 60.2451 128.017 60.353C128.311 60.4638 128.572 60.6281 128.776 60.8471C128.98 61.0658 129.155 61.3129 129.273 61.5865C129.39 61.8868 129.447 62.1885 129.447 62.5434V66.3477H128.659C128.531 66.3492 128.403 66.3308 128.28 66.2931C128.192 66.2382 128.133 66.1569 128.076 66.0193L127.929 65.6362L127.464 65.9913C127.32 66.0945 127.163 66.1778 126.997 66.2382L126.473 66.4023L125.859 66.4572C125.361 66.4725 124.871 66.3292 124.46 66.0475C124.288 65.9129 124.156 65.7325 124.081 65.5268C123.984 65.3022 123.934 65.0601 123.934 64.8153C123.939 64.553 124.015 64.2971 124.154 64.0752C124.293 63.8534 124.49 63.6741 124.723 63.5566C125.013 63.3643 125.421 63.2282 125.888 63.0908C126.385 62.9813 126.997 62.8984 127.727 62.8984V62.5982C127.727 62.2152 127.638 61.9414 127.464 61.7506C127.288 61.5583 127.056 61.4771 126.734 61.4771C126.536 61.4706 126.339 61.4983 126.151 61.5583L125.743 61.7226L125.421 61.8868C125.312 61.9396 125.193 61.9678 125.072 61.9696C124.954 61.9696 124.838 61.9414 124.78 61.8868L124.576 61.6944L124.256 61.1486ZM127.784 63.8302L126.734 63.9397C126.503 63.9751 126.278 64.0396 126.063 64.132C125.888 64.2133 125.772 64.2948 125.714 64.4042C125.655 64.5137 125.596 64.6232 125.596 64.7324C125.596 64.9796 125.655 65.1437 125.802 65.2265C125.947 65.336 126.122 65.3626 126.385 65.3626C126.644 65.3626 126.901 65.3168 127.142 65.2265C127.377 65.1097 127.594 64.9633 127.784 64.7873V63.8302ZM136.476 60.2997V66.3493H135.426C135.193 66.3493 135.077 66.2664 134.989 66.0741L134.871 65.6644L134.465 65.9926C134.332 66.0934 134.186 66.1762 134.027 66.2382C133.872 66.3213 133.704 66.3767 133.531 66.4023L132.948 66.4572C132.629 66.4642 132.312 66.4089 132.014 66.2944C131.755 66.1896 131.523 66.0265 131.336 65.8176C131.149 65.6088 131.012 65.3595 130.935 65.0891C130.847 64.8153 130.788 64.4871 130.788 64.1571V60.2997H132.51V64.1586C132.51 64.4871 132.598 64.7606 132.744 64.9514C132.919 65.1437 133.152 65.2265 133.472 65.2265C133.703 65.2221 133.932 65.1762 134.143 65.0891L134.755 64.6778V60.3263H136.476V60.2997ZM143.622 57.6181V66.3743H142.572C142.339 66.3743 142.223 66.2931 142.135 66.1021L141.988 65.5816L141.581 65.9364C141.436 66.0448 141.279 66.1369 141.115 66.2116L140.589 66.4039L139.947 66.4572C139.267 66.4572 138.627 66.1525 138.226 65.6362C138 65.3426 137.832 65.0084 137.73 64.6512C137.489 63.8088 137.5 62.914 137.759 62.0775C137.906 61.696 138.081 61.3676 138.314 61.0658C139.005 60.2612 140.165 59.9536 141.201 60.2997C141.436 60.4092 141.668 60.5186 141.843 60.7094V57.5899H143.622V57.6181ZM141.901 61.8868C141.747 61.7326 141.57 61.6034 141.376 61.5037C141.181 61.4259 140.973 61.3888 140.764 61.3942C140.564 61.3882 140.365 61.4255 140.181 61.5037C140.006 61.5803 139.855 61.7028 139.743 61.8588C139.618 62.045 139.519 62.248 139.451 62.4621C139.322 63.0291 139.322 63.6183 139.451 64.1853C139.495 64.3879 139.574 64.5818 139.686 64.7606C139.802 64.8968 139.918 65.0062 140.065 65.0609C140.21 65.1157 140.385 65.1703 140.559 65.1703C140.852 65.1703 141.115 65.1157 141.318 65.0076C141.544 64.8841 141.742 64.7161 141.901 64.5137V61.8868ZM147.035 58.5752C147.035 58.7126 147.005 58.8488 146.947 58.9596C146.885 59.0714 146.807 59.1727 146.714 59.2598C146.613 59.3555 146.494 59.4298 146.364 59.4788C146.102 59.5859 145.809 59.5859 145.547 59.4788C145.425 59.4327 145.315 59.3576 145.227 59.2598C145.133 59.1725 145.054 59.0706 144.992 58.9582C144.933 58.8394 144.903 58.708 144.906 58.5752C144.906 58.4391 144.935 58.3014 144.994 58.1919C145.12 57.9652 145.314 57.7838 145.547 57.6728C145.676 57.6164 145.815 57.5882 145.955 57.5899C146.102 57.5899 146.248 57.6181 146.364 57.6728C146.51 57.7276 146.599 57.7822 146.714 57.8917L146.948 58.1919C147.007 58.3296 147.036 58.4391 147.036 58.5765L147.035 58.5752ZM146.83 60.2997V66.3493H145.11V60.2997H146.83ZM159.023 66.3759H157.564C157.419 66.3864 157.276 66.3479 157.156 66.2664C157.055 66.1974 156.975 66.1031 156.922 65.9926L156.31 64.3776H152.693L152.081 65.9926C152.052 66.1021 151.964 66.1849 151.846 66.2664C151.727 66.3475 151.583 66.386 151.439 66.3759H149.982L153.539 57.8637H155.464L159.023 66.3759ZM155.872 63.1188L154.881 60.5186C154.814 60.3576 154.755 60.1933 154.705 60.0261L154.53 59.4241L154.355 60.0261L154.181 60.5186L153.219 63.1188H155.872ZM161.239 61.3129C161.409 60.9964 161.647 60.7168 161.939 60.4904C162.202 60.2981 162.522 60.1902 162.873 60.1902C163.164 60.1902 163.397 60.2451 163.573 60.3825L163.456 61.5865C163.439 61.6466 163.409 61.702 163.368 61.7493L163.193 61.8055L162.902 61.7773L162.551 61.7506L162.143 61.8055C161.9 61.8996 161.695 62.073 161.56 62.298L161.355 62.6811V66.3759H159.635V60.3263H160.656C160.832 60.3263 160.948 60.3543 161.005 60.4092C161.064 60.4638 161.123 60.5719 161.152 60.7094L161.239 61.3129ZM164.127 61.1486C164.906 60.5251 165.873 60.1871 166.868 60.1902C167.248 60.1902 167.598 60.2451 167.89 60.353C168.181 60.4638 168.444 60.6281 168.648 60.8471C168.853 61.0658 169.027 61.3129 169.144 61.5865C169.261 61.8868 169.319 62.1885 169.319 62.5434V66.3477H168.532C168.403 66.3494 168.275 66.331 168.152 66.2931C168.063 66.2382 168.006 66.1569 167.947 66.0193L167.801 65.6362L167.335 65.9913C167.191 66.0945 167.034 66.1778 166.868 66.2382L166.344 66.4023L165.732 66.4572C165.234 66.4729 164.743 66.3296 164.331 66.0475C164.159 65.9129 164.028 65.7325 163.952 65.5268C163.856 65.3022 163.806 65.0601 163.805 64.8153C163.81 64.553 163.886 64.2971 164.025 64.0752C164.164 63.8534 164.361 63.6741 164.594 63.5566C164.884 63.3643 165.294 63.2282 165.76 63.0908C166.256 62.9813 166.868 62.8984 167.598 62.8984V62.5982C167.598 62.2152 167.51 61.9414 167.335 61.7506C167.159 61.5583 166.927 61.4771 166.605 61.4771C166.408 61.4706 166.211 61.4983 166.023 61.5583L165.614 61.7226L165.294 61.8868C165.185 61.9398 165.065 61.968 164.943 61.9696C164.826 61.9696 164.71 61.9414 164.653 61.8868L164.447 61.6944L164.127 61.1486ZM167.657 63.8302L166.605 63.9397C166.375 63.9753 166.15 64.0398 165.936 64.132C165.76 64.2133 165.642 64.2948 165.585 64.4042C165.52 64.5026 165.48 64.6152 165.467 64.7324C165.467 64.9796 165.526 65.1437 165.673 65.2265C165.82 65.336 165.993 65.3626 166.256 65.3626C166.516 65.3626 166.773 65.3168 167.015 65.2265C167.25 65.1097 167.466 64.9633 167.657 64.7873V63.8302ZM172.411 61.0112C172.652 60.773 172.94 60.5778 173.257 60.4358C173.587 60.2892 173.945 60.2147 174.307 60.2169C174.997 60.2124 175.646 60.5186 176.057 61.0378C176.261 61.2848 176.436 61.6145 176.552 61.9696C176.669 62.3246 176.728 62.7357 176.728 63.2002C176.728 63.6928 176.669 64.132 176.522 64.5417C176.377 64.9514 176.202 65.2814 175.969 65.5816C175.74 65.8655 175.44 66.0918 175.093 66.2382C174.58 66.4527 174.01 66.5089 173.461 66.4023C173.307 66.3726 173.159 66.3177 173.023 66.2398C172.881 66.1846 172.752 66.1004 172.643 65.9926C172.523 65.9073 172.415 65.8058 172.323 65.6911L172.264 66.0459C172.238 66.1402 172.188 66.2256 172.117 66.2931C172.06 66.3477 171.973 66.3477 171.856 66.3477H170.718V57.5915H172.439V61.0112H172.411ZM172.411 64.7606C172.586 64.9248 172.76 65.0609 172.935 65.1437C173.141 65.2265 173.314 65.2532 173.518 65.2532C173.724 65.2532 173.928 65.2265 174.102 65.1437C174.277 65.0673 174.428 64.9446 174.54 64.7888C174.682 64.5995 174.781 64.385 174.831 64.1586C174.953 63.5813 174.953 62.9848 174.831 62.4075C174.78 62.2142 174.702 62.0299 174.597 61.8601C174.492 61.7287 174.363 61.6174 174.219 61.5317C174.056 61.4508 173.875 61.4131 173.694 61.4224C173.451 61.4179 173.211 61.4738 172.994 61.585C172.771 61.7182 172.574 61.8852 172.411 62.0791V64.7606ZM179.818 58.5752C179.818 58.7126 179.789 58.8488 179.73 58.9596C179.669 59.0714 179.591 59.1727 179.498 59.2598C179.397 59.3555 179.278 59.4298 179.147 59.4788C178.886 59.5859 178.593 59.5859 178.331 59.4788C178.209 59.4327 178.099 59.3576 178.011 59.2598C177.917 59.1725 177.838 59.0706 177.776 58.9582C177.717 58.8394 177.687 58.708 177.69 58.5752C177.69 58.4391 177.719 58.3014 177.778 58.1919C177.904 57.9652 178.098 57.7838 178.331 57.6728C178.46 57.6164 178.599 57.5882 178.739 57.5899C178.886 57.5899 179.032 57.6181 179.147 57.6728C179.294 57.7276 179.382 57.7822 179.498 57.8917L179.732 58.1919C179.791 58.3296 179.82 58.4391 179.82 58.5765L179.818 58.5752ZM179.615 60.2997V66.3493H177.894V60.2997H179.615ZM180.927 61.1486C181.706 60.5251 182.673 60.1871 183.668 60.1902C184.049 60.1902 184.398 60.2451 184.69 60.353C184.981 60.4638 185.244 60.6281 185.448 60.8471C185.653 61.0658 185.827 61.3129 185.944 61.5865C186.062 61.8868 186.119 62.1885 186.119 62.5434V66.3477H185.332C185.203 66.3494 185.075 66.331 184.952 66.2931C184.864 66.2382 184.806 66.1569 184.748 66.0193L184.602 65.6362L184.135 65.9913C183.992 66.0945 183.834 66.1778 183.668 66.2382L183.144 66.4023L182.532 66.4572C182.034 66.4729 181.543 66.3296 181.131 66.0475C180.959 65.9129 180.828 65.7325 180.752 65.5268C180.656 65.3022 180.606 65.0601 180.605 64.8153C180.61 64.553 180.686 64.2971 180.825 64.0752C180.964 63.8534 181.161 63.6741 181.394 63.5566C181.686 63.3643 182.094 63.2282 182.56 63.0908C183.056 62.9813 183.668 62.8984 184.398 62.8984V62.5982C184.398 62.2152 184.31 61.9414 184.135 61.7506C183.96 61.5583 183.727 61.4771 183.407 61.4771C183.209 61.4706 183.011 61.4981 182.823 61.5583L182.415 61.7226L182.094 61.8868C181.985 61.9398 181.865 61.968 181.743 61.9696C181.626 61.9696 181.51 61.9414 181.453 61.8868L181.247 61.6944L180.927 61.1486ZM184.457 63.8302L183.407 63.9397C183.176 63.9751 182.951 64.0396 182.736 64.132C182.56 64.2133 182.444 64.2948 182.385 64.4042C182.321 64.5026 182.28 64.6152 182.268 64.7324C182.268 64.9796 182.326 65.1437 182.473 65.2265C182.62 65.336 182.793 65.3626 183.056 65.3626C183.316 65.3626 183.573 65.3168 183.815 65.2265C184.05 65.1097 184.266 64.9633 184.457 64.7873V63.8302Z" fill="#28B16D"/>
</svg>
