<svg width="45" height="19" viewBox="0 0 45 19" fill="none" xmlns="http://www.w3.org/2000/svg">
<rect y="2" width="16" height="16" rx="3" fill="white"/>
<g clip-path="url(#clip0_339_352)">
<path d="M8.93093 9.23432L12.5736 5H11.7104L8.54748 8.6766L6.02125 5H3.10754L6.9277 10.5597L3.10754 15H3.97079L7.31093 11.1174L9.97881 15H12.8925L8.93072 9.23432H8.93093ZM7.7486 10.6087L7.36154 10.055L4.28183 5.64984H5.60773L8.09309 9.20497L8.48015 9.75859L11.7108 14.3797H10.3849L7.7486 10.6089V10.6087Z" fill="black"/>
</g>
<path d="M44.208 16H42.672C42.5547 16 42.4613 15.9707 42.392 15.912C42.328 15.848 42.2747 15.7787 42.232 15.704L39.16 10.888C39.1173 11.016 39.0693 11.1253 39.016 11.216L36.024 15.704C35.9707 15.7787 35.912 15.848 35.848 15.912C35.7893 15.9707 35.7067 16 35.6 16H34.16L38.104 10.112L34.32 4.536H35.864C35.976 4.536 36.0587 4.55467 36.112 4.592C36.1653 4.62933 36.2133 4.68267 36.256 4.752L39.248 9.344C39.2853 9.232 39.3413 9.10933 39.416 8.976L42.24 4.784C42.2827 4.70933 42.3333 4.65067 42.392 4.608C42.4507 4.56 42.52 4.536 42.6 4.536H44.08L40.28 10.04L44.208 16Z" fill="white"/>
<defs>
<clipPath id="clip0_339_352">
<rect width="10" height="10" fill="white" transform="translate(3 5)"/>
</clipPath>
</defs>
</svg>
